<svg width="30" height="30" viewBox="0 0 30 30" fill="none" xmlns="http://www.w3.org/2000/svg">
<path d="M15.0063 8.26025C11.2798 8.26025 8.27393 11.2661 8.27393 14.9927C8.27393 18.7192 11.2798 21.7251 15.0063 21.7251C18.7329 21.7251 21.7388 18.7192 21.7388 14.9927C21.7388 11.2661 18.7329 8.26025 15.0063 8.26025ZM15.0063 19.3696C12.5981 19.3696 10.6294 17.4067 10.6294 14.9927C10.6294 12.5786 12.5923 10.6157 15.0063 10.6157C17.4204 10.6157 19.3833 12.5786 19.3833 14.9927C19.3833 17.4067 17.4146 19.3696 15.0063 19.3696ZM23.5845 7.98486C23.5845 8.85791 22.8813 9.55518 22.0142 9.55518C21.1411 9.55518 20.4438 8.85205 20.4438 7.98486C20.4438 7.11768 21.147 6.41455 22.0142 6.41455C22.8813 6.41455 23.5845 7.11768 23.5845 7.98486ZM28.0435 9.57861C27.9438 7.4751 27.4634 5.61182 25.9224 4.07666C24.3872 2.5415 22.5239 2.06104 20.4204 1.95557C18.2524 1.83252 11.7544 1.83252 9.58643 1.95557C7.48877 2.05518 5.62549 2.53564 4.08447 4.0708C2.54346 5.60596 2.06885 7.46924 1.96338 9.57275C1.84033 11.7407 1.84033 18.2388 1.96338 20.4067C2.06299 22.5103 2.54346 24.3735 4.08447 25.9087C5.62549 27.4438 7.48291 27.9243 9.58643 28.0298C11.7544 28.1528 18.2524 28.1528 20.4204 28.0298C22.5239 27.9302 24.3872 27.4497 25.9224 25.9087C27.4575 24.3735 27.938 22.5103 28.0435 20.4067C28.1665 18.2388 28.1665 11.7466 28.0435 9.57861ZM25.2427 22.7329C24.7856 23.8813 23.9009 24.7661 22.7466 25.229C21.0181 25.9146 16.9165 25.7563 15.0063 25.7563C13.0962 25.7563 8.98877 25.9087 7.26611 25.229C6.11768 24.772 5.23291 23.8872 4.77002 22.7329C4.08447 21.0044 4.24268 16.9028 4.24268 14.9927C4.24268 13.0825 4.09033 8.9751 4.77002 7.25244C5.22705 6.104 6.11182 5.21924 7.26611 4.75635C8.99463 4.0708 13.0962 4.229 15.0063 4.229C16.9165 4.229 21.0239 4.07666 22.7466 4.75635C23.895 5.21338 24.7798 6.09814 25.2427 7.25244C25.9282 8.98096 25.77 13.0825 25.77 14.9927C25.77 16.9028 25.9282 21.0103 25.2427 22.7329Z" fill="url(#paint0_linear_345_2)"/>
<defs>
<linearGradient id="paint0_linear_345_2" x1="15.0034" y1="1.86328" x2="15.0034" y2="28.1221" gradientUnits="userSpaceOnUse">
<stop stop-color="#FE948D"/>
<stop offset="1" stop-color="#966E99"/>
</linearGradient>
</defs>
</svg>
