<svg width="28" height="28" viewBox="0 0 28 28" fill="none" xmlns="http://www.w3.org/2000/svg">
<path d="M14.0063 7.26025C10.2798 7.26025 7.27393 10.2661 7.27393 13.9927C7.27393 17.7192 10.2798 20.7251 14.0063 20.7251C17.7329 20.7251 20.7388 17.7192 20.7388 13.9927C20.7388 10.2661 17.7329 7.26025 14.0063 7.26025ZM14.0063 18.3696C11.5981 18.3696 9.62939 16.4067 9.62939 13.9927C9.62939 11.5786 11.5923 9.61572 14.0063 9.61572C16.4204 9.61572 18.3833 11.5786 18.3833 13.9927C18.3833 16.4067 16.4146 18.3696 14.0063 18.3696ZM22.5845 6.98486C22.5845 7.85791 21.8813 8.55518 21.0142 8.55518C20.1411 8.55518 19.4438 7.85205 19.4438 6.98486C19.4438 6.11768 20.147 5.41455 21.0142 5.41455C21.8813 5.41455 22.5845 6.11768 22.5845 6.98486ZM27.0435 8.57861C26.9438 6.4751 26.4634 4.61182 24.9224 3.07666C23.3872 1.5415 21.5239 1.06104 19.4204 0.955566C17.2524 0.83252 10.7544 0.83252 8.58643 0.955566C6.48877 1.05518 4.62549 1.53564 3.08447 3.0708C1.54346 4.60596 1.06885 6.46924 0.963379 8.57275C0.840332 10.7407 0.840332 17.2388 0.963379 19.4067C1.06299 21.5103 1.54346 23.3735 3.08447 24.9087C4.62549 26.4438 6.48291 26.9243 8.58643 27.0298C10.7544 27.1528 17.2524 27.1528 19.4204 27.0298C21.5239 26.9302 23.3872 26.4497 24.9224 24.9087C26.4575 23.3735 26.938 21.5103 27.0435 19.4067C27.1665 17.2388 27.1665 10.7466 27.0435 8.57861ZM24.2427 21.7329C23.7856 22.8813 22.9009 23.7661 21.7466 24.229C20.0181 24.9146 15.9165 24.7563 14.0063 24.7563C12.0962 24.7563 7.98877 24.9087 6.26611 24.229C5.11768 23.772 4.23291 22.8872 3.77002 21.7329C3.08447 20.0044 3.24268 15.9028 3.24268 13.9927C3.24268 12.0825 3.09033 7.9751 3.77002 6.25244C4.22705 5.104 5.11182 4.21924 6.26611 3.75635C7.99463 3.0708 12.0962 3.229 14.0063 3.229C15.9165 3.229 20.0239 3.07666 21.7466 3.75635C22.895 4.21338 23.7798 5.09814 24.2427 6.25244C24.9282 7.98096 24.77 12.0825 24.77 13.9927C24.77 15.9028 24.9282 20.0103 24.2427 21.7329Z" fill="#A69E9D" style="mix-blend-mode:luminosity"/>
</svg>
