<svg width="30" height="26" viewBox="0 0 30 26" fill="none" xmlns="http://www.w3.org/2000/svg">
<path d="M26.9162 6.88871C26.9353 7.1552 26.9353 7.42174 26.9353 7.68822C26.9353 15.8163 20.7487 25.1819 9.44162 25.1819C5.9581 25.1819 2.72209 24.1729 0 22.4217C0.494941 22.4788 0.970781 22.4979 1.48477 22.4979C4.35908 22.4979 7.00506 21.5271 9.11801 19.871C6.41496 19.8138 4.14973 18.0436 3.36926 15.607C3.75 15.6641 4.13068 15.7021 4.53047 15.7021C5.08248 15.7021 5.63455 15.626 6.14848 15.4928C3.33123 14.9217 1.21822 12.4471 1.21822 9.45852V9.3824C2.03672 9.83926 2.98857 10.1248 3.99738 10.1628C2.34129 9.05873 1.25631 7.17424 1.25631 5.04225C1.25631 3.90014 1.56082 2.85318 2.09385 1.93947C5.12051 5.67043 9.67002 8.10693 14.7715 8.37348C14.6763 7.91662 14.6192 7.44078 14.6192 6.96488C14.6192 3.57652 17.3603 0.816406 20.7677 0.816406C22.538 0.816406 24.1369 1.55879 25.2601 2.75803C26.6496 2.49154 27.9821 1.97756 29.1623 1.27326C28.7054 2.70096 27.7346 3.9002 26.4593 4.66156C27.6966 4.52838 28.8959 4.18566 29.9999 3.70982C29.1625 4.92805 28.1154 6.01303 26.9162 6.88871Z" fill="#A69E9D" style="mix-blend-mode:luminosity"/>
</svg>
