<svg width="30" height="30" viewBox="0 0 30 30" fill="none" xmlns="http://www.w3.org/2000/svg">
<path d="M26.9162 8.88871C26.9353 9.1552 26.9353 9.42174 26.9353 9.68822C26.9353 17.8163 20.7487 27.1819 9.44162 27.1819C5.9581 27.1819 2.72209 26.1729 0 24.4217C0.494941 24.4788 0.970781 24.4979 1.48477 24.4979C4.35908 24.4979 7.00506 23.5271 9.11801 21.871C6.41496 21.8138 4.14973 20.0436 3.36926 17.607C3.75 17.6641 4.13068 17.7021 4.53047 17.7021C5.08248 17.7021 5.63455 17.626 6.14848 17.4928C3.33123 16.9217 1.21822 14.4471 1.21822 11.4585V11.3824C2.03672 11.8393 2.98857 12.1248 3.99738 12.1628C2.34129 11.0587 1.25631 9.17424 1.25631 7.04225C1.25631 5.90014 1.56082 4.85318 2.09385 3.93947C5.12051 7.67043 9.67002 10.1069 14.7715 10.3735C14.6763 9.91662 14.6192 9.44078 14.6192 8.96488C14.6192 5.57652 17.3603 2.81641 20.7677 2.81641C22.538 2.81641 24.1369 3.55879 25.2601 4.75803C26.6496 4.49154 27.9821 3.97756 29.1623 3.27326C28.7054 4.70096 27.7346 5.9002 26.4593 6.66156C27.6966 6.52838 28.8959 6.18566 29.9999 5.70982C29.1625 6.92805 28.1154 8.01303 26.9162 8.88871Z" fill="#38B7FF"/>
</svg>
