<svg width="30" height="30" viewBox="0 0 30 30" fill="none" xmlns="http://www.w3.org/2000/svg">
<rect width="30" height="30" fill="white"/>
<path d="M6.16667 24V14.1042L4.26667 15.5556L3 13.8667L14.6111 5L26.2222 13.8667L24.9556 15.5292L23.0556 14.1042V24H6.16667ZM10.3889 17.6667C10.0898 17.6667 9.8393 17.5653 9.63733 17.3627C9.43537 17.16 9.33404 16.9095 9.33333 16.6111C9.33263 16.3127 9.43396 16.0622 9.63733 15.8596C9.8407 15.6569 10.0912 15.5556 10.3889 15.5556C10.6866 15.5556 10.9374 15.6569 11.1415 15.8596C11.3456 16.0622 11.4466 16.3127 11.4444 16.6111C11.4423 16.9095 11.341 17.1604 11.1404 17.3637C10.9399 17.5671 10.6894 17.6681 10.3889 17.6667ZM14.6111 17.6667C14.312 17.6667 14.0615 17.5653 13.8596 17.3627C13.6576 17.16 13.5563 16.9095 13.5556 16.6111C13.5549 16.3127 13.6562 16.0622 13.8596 15.8596C14.0629 15.6569 14.3134 15.5556 14.6111 15.5556C14.9088 15.5556 15.1596 15.6569 15.3637 15.8596C15.5678 16.0622 15.6688 16.3127 15.6667 16.6111C15.6646 16.9095 15.5632 17.1604 15.3627 17.3637C15.1621 17.5671 14.9116 17.6681 14.6111 17.6667ZM18.8333 17.6667C18.5343 17.6667 18.2837 17.5653 18.0818 17.3627C17.8798 17.16 17.7785 16.9095 17.7778 16.6111C17.7771 16.3127 17.8784 16.0622 18.0818 15.8596C18.2851 15.6569 18.5357 15.5556 18.8333 15.5556C19.131 15.5556 19.3819 15.6569 19.5859 15.8596C19.79 16.0622 19.891 16.3127 19.8889 16.6111C19.8868 16.9095 19.7854 17.1604 19.5849 17.3637C19.3843 17.5671 19.1338 17.6681 18.8333 17.6667Z" fill="#855D41"/>
<path d="M17.6777 14.5002V23.9002H11.5443V14.5002C11.5443 12.8065 12.9173 11.4335 14.611 11.4335C16.3047 11.4335 17.6777 12.8065 17.6777 14.5002Z" fill="#C2D0DE" stroke="white" stroke-width="0.2"/>
<path d="M4 20.9335H25.2222C25.7193 20.9335 26.1222 21.3364 26.1222 21.8335V23.9002H3.1V21.8335C3.1 21.3364 3.50294 20.9335 4 20.9335Z" fill="#C2D0DE" stroke="white" stroke-width="0.2"/>
<rect x="7.64453" y="13.4443" width="1.26667" height="0.844444" fill="#C2D0DE" stroke="white" stroke-width="0.1"/>
<rect x="7.64453" y="14.2886" width="1.26667" height="0.844444" fill="#C2D0DE" stroke="white" stroke-width="0.1"/>
<rect x="8.91016" y="13.4443" width="1.26667" height="0.844444" fill="#C2D0DE" stroke="white" stroke-width="0.1"/>
<rect x="8.91016" y="14.2886" width="1.26667" height="0.844444" fill="#C2D0DE" stroke="white" stroke-width="0.1"/>
<path d="M7.22168 15.1333H10.5995V15.5555H7.22168V15.1333Z" fill="#FCF8EB"/>
<rect x="19.2568" y="13.4443" width="1.26667" height="0.844444" fill="#C2D0DE" stroke="white" stroke-width="0.1"/>
<rect x="19.2568" y="14.2886" width="1.26667" height="0.844444" fill="#C2D0DE" stroke="white" stroke-width="0.1"/>
<rect x="20.5225" y="13.4443" width="1.26667" height="0.844444" fill="#C2D0DE" stroke="white" stroke-width="0.1"/>
<rect x="20.5225" y="14.2886" width="1.26667" height="0.844444" fill="#C2D0DE" stroke="white" stroke-width="0.1"/>
<path d="M18.834 15.1333H22.2118V15.5555H18.834V15.1333Z" fill="#FCF8EB"/>
</svg>
