<svg width="100" height="100" viewBox="0 0 100 100" fill="none" xmlns="http://www.w3.org/2000/svg">
<rect width="100" height="100" fill="white"/>
<path d="M72.9992 42.0836C66.7613 39.6889 60.4607 39.9428 58.8628 42.7484C57.2498 45.5764 59.5973 52.2705 64.0335 57.8294C68.4679 63.3836 74.735 63.2029 78.1928 57.1361C81.5956 51.0859 79.2202 44.4708 72.9992 42.0836Z" fill="#FF9700"/>
<path d="M40.0653 44.4584C46.0136 48.2449 52.6771 49.3908 55.0388 46.9332C57.4204 44.4584 56.5998 37.2267 53.3133 30.6706C50.0285 24.1177 43.4177 22.9073 38.3083 28.219C33.2633 33.5262 34.1335 40.6828 40.0653 44.4584Z" fill="#006ECD"/>
<path d="M62.1386 62.8012C61.2594 55.8207 57.9918 50.1719 54.7247 50.1768C51.4299 50.1783 46.608 55.8463 43.8045 62.832C41.0026 69.8145 44.1894 75.4712 51.255 75.463C58.2795 75.4115 63.0178 69.7627 62.1386 62.8012Z" fill="#EF151E"/>
<path d="M32.8223 48.2314C31.3548 48.2314 30.3657 48.8926 30.3657 49.8754V50.8657H33.8532C33.8532 50.8657 33.969 59.2679 33.8375 60.1475C33.7058 61.0284 33.3987 62.4614 31.2431 63.2112C29.3824 63.8593 29.3447 64.4724 29.227 65.0184C29.0734 65.726 29.255 65.8149 29.9588 65.6899C32.7286 65.1931 35.6779 64.3822 37.1696 62.3813C37.9794 61.2949 38.3044 60.1199 38.3044 58.3345V50.8641C39.7819 50.8527 40.8468 50.1639 40.8468 49.2201V48.2314H32.8223Z" fill="black"/>
<path d="M29.1765 60.2976C29.1765 60.2976 26.7658 63.7925 22.0851 63.7925C17.2551 63.7925 13.6157 60.0544 13.6157 55.0985C13.6157 50.0751 17.2551 46.2866 22.0851 46.2866C26.6815 46.2866 29.1147 49.7798 29.1147 49.7798C29.1147 49.7798 27.8276 51.1729 26.5922 51.1729C25.9891 51.1729 25.539 50.8914 25.0183 50.5666C24.3206 50.1307 23.5303 49.6372 22.0851 49.6372C19.3393 49.6372 17.1056 52.0865 17.1056 55.0985C17.1056 58.0463 19.3393 60.4452 22.0851 60.4452C23.7158 60.4452 24.4805 59.9727 25.1558 59.5559C25.6368 59.2589 26.0904 58.9792 26.7469 58.9792C28.1388 58.9792 29.1765 60.2976 29.1765 60.2976Z" fill="black"/>
</svg>
