<svg width="100" height="100" viewBox="0 0 100 100" fill="none" xmlns="http://www.w3.org/2000/svg">
<rect width="100" height="100" fill="#FCF8EB"/>
<path d="M16.2747 43.8477C16.2044 43.1211 15.5833 42.6992 14.6692 42.6992C13.7083 42.6992 13.1223 43.168 13.1223 43.8008C13.1223 44.5156 13.8723 44.8086 14.5755 44.9727L15.3723 45.1836C16.638 45.4766 17.8567 46.1445 17.8567 47.6211C17.8567 49.1094 16.6848 50.1289 14.6458 50.1289C12.6653 50.1289 11.4231 49.1797 11.3528 47.5039H12.8528C12.9231 48.3945 13.6731 48.8281 14.634 48.8281C15.6419 48.8281 16.3333 48.3359 16.3333 47.6094C16.3333 46.9414 15.7122 46.6602 14.7981 46.4258L13.8372 46.1797C12.4426 45.8164 11.5755 45.1133 11.5755 43.8945C11.5755 42.3945 12.9114 41.3984 14.6926 41.3984C16.4973 41.3984 17.7161 42.418 17.7395 43.8477H16.2747ZM26.8846 45.7578C26.8846 48.5 25.2206 50.1172 22.994 50.1172C20.7675 50.1172 19.1034 48.4883 19.1034 45.7578C19.1034 43.0156 20.7675 41.3984 22.994 41.3984C25.2206 41.3984 26.8846 43.0156 26.8846 45.7578ZM25.3495 45.7578C25.3495 43.8242 24.3768 42.7695 22.994 42.7695C21.6112 42.7695 20.6385 43.8242 20.6385 45.7578C20.6385 47.6914 21.6112 48.7461 22.994 48.7461C24.3768 48.7461 25.3495 47.6914 25.3495 45.7578ZM28.436 41.5156H30.311L32.8305 47.6797H32.936L35.4555 41.5156H37.3305V50H35.8657V44.1641H35.7837L33.4282 49.9766H32.3384L29.9829 44.1406H29.9126V50H28.436V41.5156ZM39.0929 50V41.5156H44.6124V42.793H40.6163V45.1133H44.3194V46.3906H40.6163V48.7109H44.6358V50H39.0929ZM48.0622 50L45.6716 41.5156H47.3122L48.8474 47.7617H48.9294L50.5583 41.5156H52.0583L53.6989 47.7734H53.7692L55.3044 41.5156H56.945L54.5544 50H53.0427L51.3435 44.0352H51.2849L49.5739 50H48.0622ZM58.1097 50V41.5156H59.6331V45.1133H63.5823V41.5156H65.1175V50H63.5823V46.3906H59.6331V50H58.1097ZM66.8798 50V41.5156H72.3993V42.793H68.4032V45.1133H72.1064V46.3906H68.4032V48.7109H72.4228V50H66.8798ZM74.0562 50V41.5156H77.2437C79.189 41.5156 80.232 42.6055 80.232 44.2227C80.232 45.377 79.7046 46.2324 78.7085 46.6367L80.5366 50H78.8374L77.1734 46.8945H75.5796V50H74.0562ZM75.5796 45.6172H77.0093C78.1577 45.6172 78.6734 45.125 78.6734 44.2227C78.6734 43.3203 78.1577 42.793 77.0093 42.793H75.5796V45.6172ZM81.7365 50V41.5156H87.256V42.793H83.2599V45.1133H86.963V46.3906H83.2599V48.7109H87.2794V50H81.7365ZM26.9712 64V55.5156H30.2173C32.0571 55.5156 32.9712 56.4531 32.9712 57.7188C32.9712 58.75 32.3149 59.3242 31.4829 59.5234V59.6055C32.3852 59.6523 33.2993 60.4023 33.2993 61.6914C33.2993 63.0156 32.3501 64 30.4048 64H26.9712ZM30.1704 62.7227C31.2837 62.7227 31.7524 62.2422 31.7524 61.5742C31.7524 60.8125 31.1548 60.2266 30.2055 60.2266H28.4946V62.7227H30.1704ZM30.0298 59.125C30.8384 59.125 31.4477 58.6562 31.4477 57.9062C31.4477 57.25 30.979 56.7812 30.0649 56.7812H28.4946V59.125H30.0298ZM40.089 55.5156H41.6241V61.0586C41.6241 62.875 40.2413 64.1289 38.1788 64.1289C36.1046 64.1289 34.7335 62.875 34.7335 61.0586V55.5156H36.2569V60.9297C36.2569 61.9961 37.0069 62.7695 38.1788 62.7695C39.3507 62.7695 40.089 61.9961 40.089 60.9297V55.5156ZM43.0114 56.793V55.5156H49.7731V56.793H47.1599V64H45.6364V56.793H43.0114ZM50.7855 56.793V55.5156H57.5472V56.793H54.9339V64H53.4105V56.793H50.7855ZM58.9345 64V55.5156H64.454V56.793H60.4579V59.1133H64.161V60.3906H60.4579V62.7109H64.4775V64H58.9345ZM66.1109 64V55.5156H69.2984C71.2437 55.5156 72.2866 56.6055 72.2866 58.2227C72.2866 59.377 71.7593 60.2324 70.7632 60.6367L72.5913 64H70.8921L69.228 60.8945H67.6343V64H66.1109ZM67.6343 59.6172H69.064C70.2124 59.6172 70.728 59.125 70.728 58.2227C70.728 57.3203 70.2124 56.793 69.064 56.793H67.6343V59.6172Z" fill="#222222"/>
</svg>
