<svg width="100" height="100" viewBox="0 0 100 100" fill="none" xmlns="http://www.w3.org/2000/svg">
<rect width="100" height="100" fill="white"/>
<path d="M21.5556 81.3333V48.3472L15.2222 53.1852L11 47.5556L49.7037 18L88.4074 47.5556L84.1852 53.0972L77.8518 48.3472V81.3333H21.5556ZM35.6296 60.2222C34.6327 60.2222 33.7977 59.8844 33.1244 59.2089C32.4512 58.5333 32.1135 57.6983 32.1111 56.7037C32.1088 55.7091 32.4465 54.8741 33.1244 54.1985C33.8023 53.523 34.6374 53.1852 35.6296 53.1852C36.6218 53.1852 37.4581 53.523 38.1383 54.1985C38.8186 54.8741 39.1552 55.7091 39.1481 56.7037C39.1411 57.6983 38.8033 58.5345 38.1348 59.2124C37.4663 59.8903 36.6312 60.2269 35.6296 60.2222ZM49.7037 60.2222C48.7068 60.2222 47.8717 59.8844 47.1985 59.2089C46.5253 58.5333 46.1875 57.6983 46.1852 56.7037C46.1828 55.7091 46.5206 54.8741 47.1985 54.1985C47.8764 53.523 48.7115 53.1852 49.7037 53.1852C50.6959 53.1852 51.5322 53.523 52.2124 54.1985C52.8927 54.8741 53.2293 55.7091 53.2222 56.7037C53.2152 57.6983 52.8774 58.5345 52.2089 59.2124C51.5404 59.8903 50.7053 60.2269 49.7037 60.2222ZM63.7778 60.2222C62.7809 60.2222 61.9458 59.8844 61.2726 59.2089C60.5994 58.5333 60.2616 57.6983 60.2593 56.7037C60.2569 55.7091 60.5947 54.8741 61.2726 54.1985C61.9505 53.523 62.7856 53.1852 63.7778 53.1852C64.77 53.1852 65.6062 53.523 66.2865 54.1985C66.9667 54.8741 67.3033 55.7091 67.2963 56.7037C67.2893 57.6983 66.9515 58.5345 66.283 59.2124C65.6144 59.8903 64.7794 60.2269 63.7778 60.2222Z" fill="#855D41"/>
<path d="M59.9262 49.6669V81.0002H39.4818V49.6669C39.4818 44.0213 44.0584 39.4447 49.704 39.4447C55.3496 39.4447 59.9262 44.0213 59.9262 49.6669Z" fill="#C2D0DE" stroke="white" stroke-width="0.666667"/>
<path d="M14.3333 71.1117H85.0741C86.7309 71.1117 88.0741 72.4548 88.0741 74.1117V81.0005H11.3333V74.1117C11.3333 72.4548 12.6765 71.1117 14.3333 71.1117Z" fill="#C2D0DE" stroke="white" stroke-width="0.666667"/>
<rect x="26.4814" y="46.1479" width="4.22222" height="2.81481" fill="#C2D0DE" stroke="white" stroke-width="0.333333"/>
<rect x="26.4814" y="48.9619" width="4.22222" height="2.81481" fill="#C2D0DE" stroke="white" stroke-width="0.333333"/>
<rect x="30.7012" y="46.1479" width="4.22222" height="2.81481" fill="#C2D0DE" stroke="white" stroke-width="0.333333"/>
<rect x="30.7012" y="48.9619" width="4.22222" height="2.81481" fill="#C2D0DE" stroke="white" stroke-width="0.333333"/>
<path d="M25.0723 51.7778H36.3315V53.1852H25.0723V51.7778Z" fill="#FCF8EB"/>
<rect x="65.1904" y="46.1475" width="4.22222" height="2.81481" fill="#C2D0DE" stroke="white" stroke-width="0.333333"/>
<rect x="65.1904" y="48.9614" width="4.22222" height="2.81481" fill="#C2D0DE" stroke="white" stroke-width="0.333333"/>
<rect x="69.4102" y="46.1475" width="4.22222" height="2.81481" fill="#C2D0DE" stroke="white" stroke-width="0.333333"/>
<rect x="69.4102" y="48.9619" width="4.22222" height="2.81481" fill="#C2D0DE" stroke="white" stroke-width="0.333333"/>
<path d="M63.7812 51.7773H75.0405V53.1848H63.7812V51.7773Z" fill="#FCF8EB"/>
</svg>
