<svg width="301" height="300" viewBox="0 0 301 300" fill="none" xmlns="http://www.w3.org/2000/svg">
<path d="M152.494 13.8054L151.572 13.7587L154.609 6.63049L155.517 6.67647L157.814 14.0748L156.892 14.0281L155.033 7.80399L154.976 7.80112L152.494 13.8054ZM152.979 10.9854L156.696 11.1737L156.656 11.9539L152.94 11.7657L152.979 10.9854Z" fill="#203E7F"/>
<path d="M167.959 15.0304C167.509 14.9643 167.129 14.7923 166.818 14.5145C166.508 14.2343 166.286 13.8715 166.154 13.4261C166.021 12.9783 165.997 12.4687 166.082 11.8973C166.166 11.3305 166.336 10.853 166.592 10.4647C166.848 10.0765 167.166 9.79425 167.546 9.61806C167.927 9.44188 168.344 9.3872 168.798 9.45402C169.15 9.50569 169.419 9.60505 169.605 9.75212C169.794 9.89718 169.932 10.0514 170.018 10.2148C170.106 10.3762 170.174 10.5082 170.221 10.6108L170.291 10.6212L170.684 7.96543L171.514 8.08736L170.449 15.2817L169.648 15.1639L169.77 14.3349L169.672 14.3204C169.597 14.4098 169.492 14.5212 169.357 14.6545C169.223 14.7855 169.043 14.8943 168.817 14.9807C168.591 15.0648 168.305 15.0814 167.959 15.0304ZM168.181 14.3022C168.514 14.3511 168.808 14.3058 169.063 14.1662C169.319 14.0244 169.529 13.8076 169.694 13.5161C169.86 13.2222 169.973 12.8715 170.033 12.464C170.093 12.0612 170.086 11.7001 170.014 11.3808C169.942 11.0591 169.803 10.7971 169.599 10.5947C169.395 10.39 169.124 10.2628 168.787 10.2132C168.435 10.1615 168.129 10.2087 167.868 10.3545C167.61 10.4984 167.4 10.7151 167.237 11.0047C167.077 11.2923 166.969 11.6258 166.913 12.0052C166.856 12.3892 166.863 12.7468 166.934 13.0778C167.007 13.4069 167.146 13.6809 167.351 13.9001C167.558 14.1172 167.835 14.2512 168.181 14.3022Z" fill="#203E7F"/>
<path d="M180.26 17.1327C179.781 17.0177 179.389 16.803 179.082 16.4884C178.778 16.1744 178.574 15.7883 178.471 15.3301C178.369 14.8724 178.385 14.3697 178.517 13.822C178.651 13.2697 178.867 12.8116 179.167 12.4478C179.469 12.0844 179.827 11.832 180.241 11.6903C180.658 11.5492 181.105 11.5362 181.584 11.6511C182.063 11.766 182.455 11.9805 182.759 12.2945C183.065 12.609 183.269 12.9963 183.369 13.4563C183.472 13.9168 183.457 14.4233 183.324 14.9756C183.192 15.5233 182.975 15.9776 182.673 16.3386C182.374 16.7002 182.016 16.9515 181.6 17.0926C181.186 17.2342 180.739 17.2476 180.26 17.1327ZM180.437 16.4009C180.801 16.4882 181.123 16.4668 181.402 16.3367C181.682 16.2067 181.915 16.0033 182.101 15.7266C182.288 15.4499 182.423 15.1344 182.509 14.78C182.595 14.4256 182.618 14.0818 182.579 13.7487C182.54 13.4155 182.426 13.1264 182.237 12.8814C182.048 12.6363 181.771 12.4702 181.407 12.3829C181.044 12.2956 180.722 12.3181 180.441 12.4505C180.161 12.5828 179.927 12.7885 179.741 13.0675C179.554 13.3465 179.418 13.6632 179.332 14.0176C179.247 14.372 179.223 14.7146 179.263 15.0454C179.302 15.3762 179.417 15.663 179.607 15.9058C179.797 16.1485 180.073 16.3136 180.437 16.4009Z" fill="#203E7F"/>
<path d="M190.085 19.4734L192.427 12.5881L193.221 12.8565L192.357 15.3981L192.424 15.4209C192.513 15.3509 192.633 15.2639 192.783 15.1598C192.936 15.0542 193.129 14.9795 193.362 14.9356C193.597 14.8903 193.883 14.9244 194.22 15.0381C194.655 15.1852 195.001 15.4235 195.259 15.7531C195.517 16.0827 195.672 16.4784 195.722 16.9403C195.772 17.4022 195.705 17.9043 195.521 18.4467C195.335 18.9936 195.081 19.4362 194.758 19.7744C194.436 20.1105 194.073 20.3326 193.669 20.4408C193.265 20.5468 192.848 20.527 192.417 20.3815C192.085 20.2693 191.838 20.1246 191.676 19.9473C191.514 19.7677 191.404 19.5892 191.344 19.4116C191.285 19.2318 191.243 19.0849 191.216 18.9711L191.122 18.9392L190.852 19.7327L190.085 19.4734ZM191.744 17.1552C191.611 17.5452 191.552 17.9086 191.565 18.2453C191.578 18.5799 191.667 18.8683 191.829 19.1107C191.993 19.3508 192.233 19.5247 192.552 19.6324C192.884 19.7445 193.191 19.7508 193.472 19.651C193.757 19.5497 194.006 19.369 194.219 19.1088C194.436 18.8471 194.606 18.5325 194.732 18.1649C194.855 17.8018 194.91 17.4556 194.897 17.1264C194.887 16.7956 194.799 16.5072 194.633 16.261C194.469 16.0134 194.219 15.8327 193.883 15.719C193.56 15.6099 193.261 15.6 192.985 15.6893C192.711 15.7764 192.468 15.9467 192.257 16.2001C192.046 16.4514 191.875 16.7697 191.744 17.1552Z" fill="#203E7F"/>
<path d="M203.673 24.5019C203.192 24.2903 202.824 24.0017 202.569 23.636C202.317 23.2692 202.182 22.8527 202.163 22.3866C202.147 21.9193 202.252 21.4302 202.478 20.9193C202.705 20.4085 202.997 19.9992 203.356 19.6915C203.718 19.3826 204.115 19.1928 204.548 19.1219C204.984 19.0498 205.427 19.1129 205.878 19.3112C206.138 19.4256 206.376 19.5819 206.591 19.78C206.806 19.9781 206.974 20.2204 207.096 20.5067C207.219 20.7909 207.272 21.1193 207.254 21.4918C207.237 21.8644 207.125 22.2834 206.919 22.7488L206.775 23.0735L202.927 21.3804L203.22 20.718L206.288 22.0679C206.413 21.7865 206.468 21.5106 206.453 21.2402C206.44 20.9708 206.359 20.7269 206.21 20.5086C206.063 20.2913 205.85 20.1216 205.573 19.9996C205.268 19.8652 204.97 19.8246 204.679 19.878C204.392 19.9301 204.136 20.0501 203.91 20.2379C203.685 20.4258 203.511 20.6572 203.389 20.9321L203.194 21.3737C203.027 21.7504 202.951 22.0983 202.965 22.4174C202.982 22.7353 203.077 23.014 203.251 23.2533C203.426 23.4905 203.668 23.6772 203.978 23.8135C204.179 23.9022 204.374 23.9541 204.561 23.9694C204.752 23.9834 204.932 23.9592 205.102 23.8969C205.273 23.8325 205.429 23.7279 205.571 23.5834L206.22 24.1172C206.031 24.334 205.802 24.4971 205.533 24.6066C205.266 24.7139 204.973 24.761 204.655 24.7479C204.338 24.7326 204.011 24.6507 203.673 24.5019Z" fill="#203E7F"/>
<path d="M217.872 31.193L221.686 25.0002L223.782 26.2827C224.269 26.5805 224.612 26.9116 224.813 27.276C225.018 27.6397 225.103 28.0154 225.07 28.4032C225.037 28.7909 224.908 29.1673 224.684 29.5321C224.459 29.897 224.18 30.1829 223.847 30.3898C223.516 30.598 223.141 30.6962 222.723 30.6846C222.306 30.6709 221.856 30.5164 221.373 30.2211L219.871 29.3019L220.281 28.6366L221.759 29.5411C222.092 29.7449 222.395 29.8512 222.668 29.8598C222.94 29.8685 223.182 29.8029 223.394 29.6629C223.608 29.5222 223.792 29.3279 223.944 29.0799C224.097 28.832 224.187 28.5818 224.215 28.3294C224.244 28.0783 224.191 27.8349 224.056 27.5992C223.921 27.3615 223.685 27.1395 223.348 26.9332L222.027 26.1251L218.624 31.6526L217.872 31.193Z" fill="#203E7F"/>
<path d="M231.338 35.8186L229.37 38.4449L228.698 37.9446L233.058 32.1236L233.73 32.6239L232.129 34.7613L232.186 34.8037C232.458 34.6545 232.746 34.59 233.05 34.61C233.358 34.6295 233.684 34.7672 234.028 35.023C234.326 35.2449 234.542 35.4989 234.677 35.7851C234.813 36.0693 234.851 36.3796 234.792 36.7159C234.735 37.0518 234.567 37.4073 234.286 37.7825L232.208 40.5565L231.536 40.0562L233.579 37.3276C233.839 36.9808 233.95 36.6456 233.911 36.3218C233.876 35.9976 233.7 35.7174 233.383 35.4814C233.162 35.3174 232.93 35.2169 232.686 35.1797C232.443 35.1439 232.205 35.1776 231.971 35.2808C231.739 35.3855 231.528 35.5647 231.338 35.8186Z" fill="#203E7F"/>
<path d="M243.504 42.568L243.04 43.1061L240.893 41.2682L241.356 40.73L243.504 42.568ZM242.835 40.2755L243.472 40.8204L240.079 44.7596C239.924 44.939 239.835 45.0959 239.81 45.2302C239.788 45.3643 239.805 45.482 239.862 45.5833C239.922 45.6843 239.998 45.7749 240.092 45.8549C240.162 45.9149 240.223 45.9606 240.274 45.9919C240.326 46.0214 240.369 46.045 240.4 46.0628L240.038 46.744C239.981 46.7232 239.907 46.6878 239.816 46.6377C239.723 46.5895 239.617 46.5146 239.499 46.413C239.319 46.259 239.176 46.0696 239.069 45.8447C238.965 45.6214 238.924 45.3823 238.947 45.1274C238.971 44.8741 239.087 44.6273 239.294 44.3869L242.835 40.2755Z" fill="#203E7F"/>
<path d="M244.837 51.2029C244.485 50.8579 244.259 50.4718 244.159 50.0447C244.06 49.6192 244.085 49.1836 244.232 48.738C244.381 48.2939 244.654 47.8715 245.05 47.4708C245.45 47.0667 245.872 46.7861 246.317 46.629C246.763 46.4736 247.201 46.442 247.629 46.5341C248.059 46.6278 248.449 46.8472 248.801 47.1922C249.152 47.5373 249.377 47.9225 249.476 48.348C249.576 48.7751 249.551 49.2115 249.4 49.6572C249.251 50.1046 248.976 50.5303 248.577 50.9344C248.181 51.3352 247.76 51.6124 247.316 51.7661C246.872 51.9215 246.436 51.9524 246.006 51.8586C245.578 51.7665 245.188 51.548 244.837 51.2029ZM245.366 50.6675C245.633 50.9296 245.92 51.0771 246.227 51.1099C246.534 51.1427 246.839 51.0886 247.141 50.9476C247.443 50.8067 247.723 50.6065 247.979 50.3472C248.235 50.0879 248.433 49.8057 248.571 49.5004C248.71 49.1952 248.761 48.889 248.726 48.5817C248.69 48.2744 248.538 47.9898 248.271 47.7277C248.005 47.4656 247.717 47.3189 247.408 47.2878C247.099 47.2567 246.793 47.3124 246.489 47.4551C246.185 47.5978 245.904 47.7987 245.648 48.058C245.392 48.3173 245.195 48.5988 245.058 48.9023C244.921 49.2058 244.872 49.5104 244.909 49.816C244.947 50.1216 245.099 50.4054 245.366 50.6675Z" fill="#203E7F"/>
<path d="M257.637 58.3046L256.984 57.8728C257.048 57.7554 257.095 57.6232 257.125 57.4762C257.158 57.3296 257.153 57.1716 257.11 57.0025C257.068 56.8333 256.967 56.6563 256.808 56.4716C256.59 56.2187 256.35 56.058 256.088 55.9895C255.829 55.9212 255.61 55.9633 255.432 56.1157C255.274 56.2512 255.199 56.4156 255.206 56.6089C255.213 56.8022 255.291 57.047 255.44 57.3433L255.818 58.086C256.046 58.5324 256.146 58.9255 256.116 59.2652C256.089 59.6034 255.931 59.8965 255.641 60.1443C255.404 60.3476 255.133 60.4611 254.828 60.4849C254.525 60.5105 254.216 60.4484 253.899 60.2987C253.583 60.1489 253.286 59.9135 253.009 59.5925C252.646 59.171 252.437 58.7436 252.383 58.3104C252.328 57.8772 252.446 57.4729 252.735 57.0976L253.405 57.5709C253.231 57.8192 253.158 58.0709 253.184 58.326C253.211 58.5828 253.337 58.8413 253.561 59.1014C253.816 59.3973 254.082 59.5784 254.357 59.6446C254.636 59.711 254.865 59.668 255.043 59.5156C255.187 59.3924 255.264 59.2391 255.275 59.0555C255.287 58.8704 255.228 58.653 255.097 58.4034L254.666 57.5761C254.43 57.1207 254.329 56.7234 254.365 56.3842C254.405 56.0452 254.567 55.7533 254.853 55.5085C255.087 55.3084 255.35 55.1968 255.643 55.1737C255.937 55.1525 256.233 55.2119 256.532 55.3519C256.832 55.4937 257.108 55.7099 257.358 56.0005C257.71 56.4094 257.897 56.8074 257.918 57.1945C257.941 57.5834 257.847 57.9535 257.637 58.3046Z" fill="#203E7F"/>
<path d="M262.045 65.0886L259.385 67.009L258.892 66.331L264.789 62.0745L265.282 62.7525L263.117 64.3155L263.158 64.3729C263.462 64.3115 263.756 64.3357 264.041 64.4455C264.329 64.5559 264.598 64.7845 264.85 65.1312C265.069 65.4319 265.2 65.7389 265.243 66.0522C265.288 66.3641 265.232 66.6717 265.075 66.9749C264.921 67.2787 264.654 67.5678 264.274 67.8421L261.464 69.8706L260.971 69.1925L263.735 67.1973C264.087 66.9438 264.292 66.6567 264.352 66.3362C264.415 66.0162 264.33 65.6963 264.098 65.3764C263.937 65.1542 263.745 64.989 263.523 64.8807C263.302 64.7742 263.065 64.7354 262.81 64.7641C262.558 64.7948 262.303 64.9029 262.045 65.0886Z" fill="#203E7F"/>
<path d="M266.904 78.0232C266.651 77.6008 266.53 77.1703 266.54 76.7316C266.551 76.2948 266.685 75.8793 266.939 75.485C267.196 75.0927 267.566 74.7523 268.05 74.464C268.538 74.1732 269.017 74.0077 269.487 73.9675C269.958 73.9293 270.389 74.0086 270.781 74.2054C271.173 74.4042 271.496 74.7148 271.749 75.1372C272.002 75.5595 272.123 75.989 272.112 76.4257C272.101 76.8645 271.967 77.2806 271.709 77.6741C271.452 78.0697 271.08 78.4128 270.591 78.7036C270.107 78.992 269.631 79.1546 269.162 79.1916C268.694 79.2306 268.264 79.1507 267.871 78.9519C267.48 78.7551 267.158 78.4455 266.904 78.0232ZM267.551 77.6379C267.743 77.9587 267.984 78.1736 268.273 78.2826C268.562 78.3915 268.87 78.4158 269.199 78.3554C269.527 78.2949 269.847 78.1714 270.161 77.9848C270.474 77.7982 270.736 77.5746 270.947 77.314C271.158 77.0534 271.284 76.7698 271.327 76.4634C271.37 76.1569 271.295 75.8433 271.102 75.5224C270.91 75.2016 270.668 74.9873 270.377 74.8796C270.086 74.7718 269.776 74.7488 269.446 74.8104C269.116 74.8721 268.794 74.9962 268.481 75.1828C268.167 75.3693 267.906 75.5924 267.698 75.8518C267.489 76.1112 267.364 76.3935 267.323 76.6988C267.283 77.004 267.359 77.3171 267.551 77.6379Z" fill="#203E7F"/>
<path d="M270.193 87.414L276.955 84.1691L277.307 84.8982L276.526 85.2731L276.569 85.3626C276.681 85.3771 276.827 85.4016 277.007 85.4362C277.19 85.4718 277.378 85.5573 277.572 85.6926C277.769 85.829 277.945 86.0571 278.1 86.3768C278.3 86.7904 278.372 87.2046 278.317 87.6195C278.263 88.0343 278.088 88.4214 277.794 88.7807C277.499 89.1399 277.094 89.4435 276.577 89.6913C276.056 89.9413 275.562 90.0694 275.095 90.0758C274.629 90.0812 274.217 89.9774 273.856 89.7644C273.498 89.5504 273.22 89.2387 273.022 88.8294C272.87 88.5139 272.8 88.2362 272.813 87.9963C272.828 87.7553 272.878 87.5514 272.963 87.3846C273.05 87.2167 273.125 87.0835 273.188 86.9851L273.157 86.9211L270.557 88.1687L270.193 87.414ZM274.854 86.091C274.483 86.2692 274.181 86.4808 273.95 86.7257C273.721 86.9696 273.577 87.2345 273.517 87.5202C273.46 87.8049 273.505 88.0986 273.651 88.4014C273.804 88.7169 274.014 88.9402 274.282 89.0714C274.554 89.2036 274.857 89.2549 275.193 89.2253C275.531 89.1968 275.876 89.0985 276.226 88.9305C276.571 88.7646 276.857 88.5618 277.083 88.322C277.312 88.0834 277.457 87.8186 277.516 87.5275C277.578 87.2376 277.532 86.9328 277.378 86.613C277.23 86.306 277.027 86.0855 276.77 85.9513C276.516 85.8161 276.224 85.7618 275.895 85.7884C275.568 85.8139 275.221 85.9148 274.854 86.091Z" fill="#203E7F"/>
<path d="M279.546 103.361L286.463 101.114L287.818 105.259L287.075 105.5L285.994 102.193L283.657 102.952L284.637 105.949L283.894 106.19L282.914 103.193L279.82 104.198L279.546 103.361Z" fill="#203E7F"/>
<path d="M283.034 114.548L288.318 113.195L288.527 114.007L283.243 115.36L283.034 114.548ZM289.305 113.383C289.264 113.224 289.283 113.074 289.361 112.932C289.44 112.792 289.555 112.703 289.707 112.664C289.858 112.625 290.002 112.648 290.139 112.733C290.276 112.82 290.365 112.943 290.406 113.101C290.447 113.259 290.428 113.408 290.349 113.548C290.271 113.69 290.156 113.781 290.004 113.819C289.853 113.858 289.709 113.834 289.571 113.747C289.435 113.662 289.346 113.541 289.305 113.383Z" fill="#203E7F"/>
<path d="M282.723 122.361C282.647 121.964 282.634 121.612 282.682 121.307C282.728 121.002 282.816 120.738 282.945 120.517C283.072 120.298 283.218 120.115 283.384 119.968L283.968 120.538C283.885 120.631 283.791 120.746 283.687 120.883C283.58 121.021 283.499 121.198 283.443 121.413C283.386 121.631 283.387 121.902 283.449 122.225C283.53 122.658 283.702 122.995 283.965 123.237C284.228 123.48 284.582 123.559 285.029 123.475L286.118 123.27L286.105 123.201C285.996 123.158 285.858 123.095 285.693 123.011C285.53 122.928 285.374 122.793 285.223 122.607C285.075 122.423 284.968 122.157 284.902 121.808C284.82 121.375 284.849 120.967 284.989 120.585C285.129 120.204 285.376 119.877 285.729 119.604C286.082 119.333 286.538 119.145 287.097 119.04C287.646 118.937 288.142 118.944 288.586 119.06C289.032 119.176 289.399 119.386 289.688 119.688C289.978 119.99 290.166 120.367 290.252 120.818C290.317 121.167 290.312 121.455 290.234 121.681C290.159 121.91 290.059 122.092 289.933 122.229C289.81 122.368 289.707 122.476 289.626 122.554L289.641 122.638L290.493 122.478L290.643 123.274L285.129 124.309C284.668 124.395 284.274 124.361 283.946 124.206C283.616 124.053 283.35 123.814 283.149 123.488C282.945 123.165 282.803 122.789 282.723 122.361ZM285.663 121.78C285.725 122.111 285.854 122.376 286.048 122.575C286.242 122.775 286.493 122.907 286.799 122.973C287.105 123.038 287.456 123.034 287.852 122.959C288.238 122.887 288.568 122.765 288.841 122.593C289.115 122.421 289.314 122.206 289.438 121.946C289.563 121.687 289.593 121.39 289.53 121.055C289.464 120.706 289.321 120.431 289.1 120.232C288.88 120.035 288.61 119.906 288.29 119.846C287.97 119.788 287.629 119.793 287.266 119.861C286.894 119.931 286.576 120.051 286.312 120.221C286.05 120.393 285.86 120.609 285.74 120.87C285.624 121.133 285.598 121.436 285.663 121.78Z" fill="#203E7F"/>
<path d="M286.758 131.992L292.196 131.571L292.259 132.378L291.409 132.444L291.415 132.515C291.714 132.606 291.953 132.771 292.134 133.011C292.316 133.251 292.421 133.548 292.449 133.902C292.477 134.261 292.419 134.566 292.274 134.817C292.133 135.07 291.922 135.275 291.642 135.432L291.647 135.489C291.938 135.606 292.178 135.798 292.365 136.064C292.554 136.329 292.664 136.657 292.694 137.046C292.732 137.532 292.611 137.942 292.33 138.275C292.052 138.607 291.594 138.798 290.954 138.848L287.314 139.13L287.249 138.294L290.889 138.012C291.29 137.981 291.568 137.849 291.723 137.616C291.879 137.384 291.945 137.118 291.921 136.821C291.892 136.439 291.753 136.151 291.505 135.959C291.26 135.767 290.961 135.684 290.61 135.712L287.069 135.986L287.003 135.136L290.727 134.848C291.037 134.824 291.278 134.704 291.451 134.489C291.627 134.273 291.702 134.008 291.677 133.691C291.66 133.474 291.587 133.276 291.456 133.096C291.326 132.918 291.154 132.78 290.94 132.68C290.728 132.582 290.488 132.544 290.222 132.565L286.823 132.828L286.758 131.992Z" fill="#203E7F"/>
<path d="M287.667 151.053C287.677 150.708 287.751 150.396 287.889 150.118C288.029 149.84 288.226 149.622 288.479 149.463C288.735 149.304 289.04 149.23 289.395 149.24C289.707 149.249 289.959 149.317 290.149 149.446C290.342 149.574 290.492 149.743 290.597 149.952C290.702 150.161 290.779 150.39 290.826 150.64C290.876 150.893 290.914 151.146 290.94 151.4C290.973 151.733 290.998 152.002 291.013 152.209C291.031 152.417 291.066 152.57 291.118 152.666C291.17 152.765 291.263 152.816 291.398 152.82L291.426 152.82C291.776 152.83 292.051 152.742 292.251 152.556C292.45 152.372 292.555 152.087 292.566 151.701C292.577 151.301 292.498 150.985 292.33 150.753C292.161 150.521 291.978 150.356 291.782 150.258L292.088 149.471C292.416 149.622 292.668 149.819 292.846 150.061C293.027 150.305 293.149 150.569 293.215 150.852C293.283 151.138 293.313 151.419 293.305 151.693C293.3 151.868 293.273 152.069 293.224 152.295C293.178 152.523 293.087 152.742 292.954 152.952C292.82 153.163 292.622 153.337 292.36 153.472C292.098 153.606 291.751 153.668 291.318 153.656L287.725 153.556L287.749 152.718L288.487 152.739L288.488 152.696C288.371 152.636 288.247 152.538 288.116 152.402C287.985 152.265 287.875 152.086 287.787 151.863C287.698 151.64 287.658 151.37 287.667 151.053ZM288.416 151.202C288.407 151.533 288.464 151.814 288.588 152.045C288.712 152.278 288.875 152.456 289.078 152.577C289.28 152.702 289.495 152.767 289.722 152.773L290.489 152.794C290.447 152.758 290.411 152.678 290.378 152.557C290.349 152.438 290.323 152.299 290.301 152.143C290.282 151.988 290.265 151.837 290.25 151.69C290.237 151.545 290.226 151.428 290.217 151.337C290.195 151.119 290.154 150.914 290.096 150.723C290.04 150.534 289.95 150.38 289.828 150.261C289.708 150.144 289.542 150.082 289.329 150.076C289.038 150.068 288.815 150.17 288.66 150.381C288.507 150.595 288.426 150.868 288.416 151.202Z" fill="#203E7F"/>
<path d="M286.888 167.007L294.06 168.216L293.912 169.084L290.719 168.546L290.07 172.369L293.264 172.908L293.116 173.776L285.945 172.567L286.092 171.699L289.3 172.239L289.948 168.416L286.741 167.875L286.888 167.007Z" fill="#203E7F"/>
<path d="M290.599 182.969L291.352 183.177L289.891 188.432L289.138 188.224L289.75 186.021L283.493 184.292L283.729 183.443L289.986 185.172L290.599 182.969Z" fill="#203E7F"/>
<path d="M287.472 196.953L287.076 197.927L280.548 197.959L280.516 198.038L285.185 202.587L284.79 203.56L278.045 200.84L278.355 200.077L283.479 202.144L283.506 202.078L279.236 197.905L279.535 197.168L285.515 197.129L285.541 197.063L280.417 194.996L280.727 194.233L287.472 196.953Z" fill="#203E7F"/>
<path d="M273.727 210.67L280.138 214.103L279.72 214.878L273.997 211.814L272.393 214.79L271.705 214.421L273.727 210.67Z" fill="#203E7F"/>
<path d="M265.574 233.512L266.096 232.802C266.331 232.909 266.565 232.967 266.797 232.975C267.028 232.985 267.25 232.955 267.465 232.883C267.68 232.814 267.88 232.709 268.065 232.569C268.251 232.429 268.415 232.262 268.558 232.067C268.819 231.712 268.965 231.325 268.997 230.906C269.028 230.488 268.93 230.067 268.705 229.642C268.479 229.218 268.111 228.821 267.603 228.45C267.094 228.078 266.603 227.849 266.13 227.761C265.655 227.675 265.223 227.71 264.833 227.865C264.441 228.022 264.115 228.277 263.855 228.632C263.712 228.827 263.601 229.033 263.523 229.252C263.444 229.47 263.404 229.691 263.401 229.915C263.399 230.142 263.437 230.363 263.516 230.579C263.596 230.799 263.722 231.004 263.894 231.193L263.372 231.903C263.111 231.63 262.914 231.337 262.781 231.023C262.647 230.708 262.575 230.386 262.563 230.054C262.552 229.724 262.6 229.397 262.706 229.073C262.811 228.751 262.972 228.442 263.189 228.146C263.557 227.647 264.006 227.291 264.536 227.081C265.067 226.871 265.64 226.819 266.255 226.925C266.871 227.031 267.488 227.311 268.107 227.763C268.727 228.215 269.18 228.718 269.467 229.271C269.754 229.823 269.877 230.384 269.836 230.951C269.795 231.519 269.59 232.053 269.223 232.553C269.006 232.849 268.759 233.095 268.482 233.291C268.204 233.49 267.905 233.633 267.584 233.722C267.265 233.811 266.936 233.84 266.595 233.808C266.256 233.778 265.916 233.679 265.574 233.512Z" fill="#203E7F"/>
<path d="M257.612 244.12C257.909 244.329 258.232 244.387 258.584 244.295C258.935 244.203 259.258 243.993 259.553 243.666C259.769 243.427 259.919 243.183 260.003 242.935C260.086 242.688 260.104 242.453 260.059 242.231C260.012 242.011 259.903 241.824 259.73 241.669C259.585 241.539 259.43 241.462 259.264 241.437C259.099 241.416 258.932 241.429 258.765 241.476C258.6 241.525 258.441 241.589 258.289 241.669C258.139 241.751 258.006 241.83 257.889 241.906L257.246 242.322C257.082 242.429 256.889 242.539 256.669 242.653C256.446 242.769 256.208 242.855 255.952 242.912C255.697 242.972 255.435 242.976 255.167 242.923C254.899 242.87 254.638 242.73 254.384 242.502C254.092 242.24 253.896 241.926 253.798 241.562C253.698 241.199 253.711 240.809 253.835 240.392C253.957 239.977 254.206 239.563 254.58 239.148C254.929 238.761 255.294 238.483 255.675 238.312C256.054 238.143 256.428 238.078 256.798 238.117C257.166 238.158 257.508 238.301 257.823 238.545L257.213 239.22C256.993 239.054 256.762 238.971 256.52 238.971C256.279 238.973 256.042 239.038 255.81 239.164C255.579 239.293 255.366 239.465 255.172 239.679C254.947 239.929 254.785 240.189 254.687 240.46C254.591 240.733 254.563 240.993 254.605 241.24C254.648 241.489 254.768 241.702 254.966 241.879C255.146 242.04 255.337 242.122 255.54 242.123C255.743 242.124 255.954 242.074 256.172 241.974C256.39 241.874 256.611 241.752 256.835 241.61L257.626 241.117C258.128 240.804 258.603 240.626 259.051 240.582C259.498 240.539 259.904 240.68 260.269 241.008C260.572 241.279 260.763 241.598 260.841 241.964C260.919 242.333 260.895 242.713 260.77 243.103C260.644 243.496 260.426 243.865 260.115 244.209C259.801 244.557 259.459 244.81 259.09 244.968C258.722 245.128 258.36 245.191 258.002 245.156C257.642 245.123 257.322 244.989 257.041 244.752L257.612 244.12Z" fill="#203E7F"/>
<path d="M248.242 253.74C248.518 253.975 248.834 254.064 249.193 254.005C249.551 253.946 249.892 253.768 250.217 253.47C250.454 253.253 250.626 253.024 250.733 252.784C250.839 252.546 250.88 252.314 250.855 252.089C250.829 251.866 250.738 251.669 250.58 251.498C250.449 251.356 250.301 251.264 250.139 251.224C249.976 251.187 249.809 251.184 249.638 251.216C249.469 251.249 249.305 251.298 249.146 251.364C248.989 251.431 248.849 251.497 248.725 251.562L248.046 251.915C247.873 252.007 247.671 252.099 247.44 252.191C247.208 252.285 246.962 252.349 246.703 252.381C246.443 252.417 246.182 252.396 245.92 252.319C245.658 252.241 245.411 252.077 245.18 251.826C244.913 251.538 244.748 251.207 244.685 250.835C244.62 250.464 244.669 250.077 244.831 249.674C244.992 249.273 245.279 248.883 245.69 248.505C246.074 248.153 246.463 247.91 246.858 247.776C247.252 247.643 247.63 247.614 247.995 247.687C248.357 247.763 248.684 247.937 248.975 248.21L248.305 248.824C248.101 248.639 247.879 248.534 247.638 248.511C247.398 248.491 247.156 248.533 246.913 248.636C246.671 248.743 246.443 248.894 246.23 249.09C245.982 249.317 245.797 249.561 245.673 249.822C245.552 250.084 245.5 250.341 245.518 250.591C245.538 250.843 245.638 251.066 245.818 251.261C245.981 251.438 246.165 251.537 246.367 251.557C246.569 251.577 246.783 251.547 247.01 251.468C247.236 251.389 247.468 251.289 247.704 251.168L248.537 250.751C249.067 250.487 249.556 250.354 250.006 250.353C250.456 250.351 250.847 250.531 251.18 250.891C251.456 251.19 251.616 251.525 251.659 251.897C251.702 252.272 251.643 252.647 251.481 253.024C251.319 253.403 251.068 253.75 250.726 254.064C250.38 254.381 250.016 254.601 249.634 254.723C249.253 254.848 248.886 254.876 248.533 254.808C248.178 254.742 247.872 254.578 247.614 254.316L248.242 253.74Z" fill="#203E7F"/>
<path d="M235.033 266.928L234.311 267.432L231.323 263.178C231.056 262.798 230.899 262.427 230.853 262.064C230.806 261.701 230.862 261.362 231.019 261.047C231.177 260.732 231.429 260.454 231.774 260.213C232.1 259.985 232.432 259.842 232.769 259.782C233.108 259.725 233.428 259.756 233.729 259.875C234.029 259.994 234.286 260.206 234.5 260.51L233.789 261.006C233.671 260.838 233.526 260.72 233.354 260.652C233.182 260.587 232.997 260.572 232.8 260.605C232.604 260.638 232.412 260.721 232.223 260.852C232.015 260.997 231.869 261.164 231.785 261.353C231.701 261.542 231.68 261.747 231.723 261.968C231.765 262.193 231.872 262.428 232.045 262.674L235.033 266.928Z" fill="#203E7F"/>
<path d="M222.246 266.551C222.545 266.378 222.849 266.276 223.158 266.247C223.469 266.22 223.758 266.272 224.027 266.403C224.297 266.536 224.522 266.756 224.701 267.063C224.859 267.333 224.934 267.582 224.925 267.812C224.918 268.043 224.853 268.259 224.732 268.458C224.61 268.658 224.455 268.843 224.268 269.015C224.079 269.19 223.884 269.356 223.682 269.512C223.417 269.715 223.201 269.878 223.033 270C222.865 270.125 222.754 270.235 222.699 270.329C222.643 270.425 222.649 270.531 222.717 270.648L222.731 270.672C222.908 270.975 223.129 271.162 223.392 271.233C223.654 271.305 223.952 271.244 224.286 271.05C224.631 270.849 224.858 270.616 224.966 270.351C225.074 270.085 225.118 269.843 225.098 269.625L225.929 269.471C225.973 269.828 225.94 270.146 225.828 270.425C225.716 270.706 225.557 270.949 225.35 271.154C225.143 271.363 224.921 271.536 224.683 271.674C224.532 271.762 224.347 271.844 224.129 271.922C223.91 272.003 223.676 272.041 223.427 272.038C223.177 272.036 222.925 271.959 222.672 271.808C222.419 271.656 222.183 271.394 221.964 271.02L220.149 267.918L220.874 267.497L221.247 268.134L221.283 268.113C221.273 267.982 221.291 267.825 221.337 267.642C221.384 267.459 221.478 267.271 221.621 267.079C221.763 266.887 221.972 266.711 222.246 266.551ZM222.516 267.265C222.229 267.432 222.02 267.628 221.89 267.855C221.757 268.083 221.692 268.315 221.696 268.551C221.698 268.788 221.756 269.005 221.871 269.201L222.258 269.863C222.267 269.808 222.315 269.735 222.401 269.644C222.487 269.556 222.591 269.461 222.713 269.36C222.834 269.263 222.953 269.169 223.07 269.079C223.187 268.992 223.281 268.921 223.353 268.865C223.527 268.731 223.679 268.589 223.811 268.439C223.942 268.292 224.025 268.135 224.062 267.968C224.098 267.805 224.063 267.631 223.955 267.447C223.808 267.196 223.604 267.06 223.342 267.04C223.08 267.022 222.804 267.098 222.516 267.265Z" fill="#203E7F"/>
<path d="M212.345 278.225L211.81 272.439L212.579 272.073L216.757 276.125L215.936 276.516L212.699 273.243L212.648 273.268L213.166 277.835L212.345 278.225Z" fill="#203E7F"/>
<path d="M202.214 276.625C202.538 276.503 202.854 276.453 203.164 276.475C203.475 276.5 203.752 276.599 203.995 276.773C204.239 276.949 204.424 277.203 204.551 277.535C204.661 277.827 204.694 278.085 204.648 278.31C204.602 278.537 204.503 278.739 204.35 278.916C204.197 279.093 204.013 279.251 203.8 279.389C203.586 279.531 203.366 279.662 203.14 279.783C202.845 279.939 202.605 280.064 202.42 280.157C202.234 280.253 202.106 280.343 202.037 280.427C201.965 280.512 201.953 280.618 202.001 280.744L202.011 280.771C202.136 281.098 202.322 281.319 202.571 281.432C202.817 281.547 203.12 281.536 203.481 281.4C203.856 281.259 204.118 281.066 204.268 280.822C204.419 280.578 204.502 280.347 204.518 280.128L205.363 280.113C205.348 280.473 205.262 280.781 205.106 281.037C204.949 281.296 204.751 281.51 204.514 281.678C204.275 281.849 204.027 281.983 203.77 282.08C203.606 282.142 203.41 282.193 203.183 282.234C202.954 282.277 202.717 282.277 202.472 282.233C202.225 282.189 201.989 282.072 201.765 281.881C201.54 281.69 201.351 281.392 201.197 280.987L199.921 277.627L200.705 277.331L200.967 278.022L201.007 278.007C201.018 277.876 201.062 277.724 201.138 277.551C201.214 277.378 201.338 277.209 201.511 277.042C201.683 276.876 201.918 276.737 202.214 276.625ZM202.362 277.374C202.052 277.491 201.814 277.65 201.647 277.852C201.479 278.055 201.377 278.273 201.341 278.507C201.304 278.741 201.325 278.965 201.406 279.177L201.678 279.894C201.697 279.842 201.756 279.778 201.856 279.702C201.955 279.629 202.073 279.553 202.21 279.473C202.346 279.397 202.479 279.324 202.609 279.254C202.738 279.188 202.843 279.133 202.923 279.09C203.117 278.987 203.291 278.872 203.445 278.745C203.598 278.622 203.707 278.481 203.771 278.322C203.833 278.167 203.827 277.99 203.751 277.791C203.648 277.519 203.469 277.351 203.214 277.287C202.959 277.227 202.674 277.256 202.362 277.374Z" fill="#203E7F"/>
<path d="M190.576 286.508C190.714 286.843 190.956 287.066 191.302 287.176C191.647 287.286 192.032 287.283 192.456 287.164C192.767 287.078 193.024 286.952 193.228 286.787C193.431 286.623 193.572 286.435 193.653 286.223C193.732 286.012 193.74 285.795 193.677 285.571C193.625 285.384 193.535 285.236 193.408 285.126C193.28 285.019 193.133 284.941 192.967 284.892C192.801 284.845 192.633 284.814 192.461 284.8C192.291 284.789 192.136 284.784 191.996 284.786L191.231 284.792C191.035 284.795 190.814 284.786 190.567 284.764C190.317 284.742 190.07 284.687 189.823 284.598C189.576 284.513 189.353 284.375 189.155 284.187C188.957 283.999 188.812 283.741 188.72 283.413C188.614 283.034 188.618 282.665 188.731 282.304C188.841 281.944 189.06 281.621 189.389 281.335C189.714 281.051 190.146 280.833 190.685 280.683C191.186 280.544 191.644 280.504 192.056 280.563C192.466 280.624 192.817 280.769 193.108 281C193.397 281.232 193.608 281.536 193.743 281.911L192.867 282.155C192.77 281.897 192.62 281.703 192.416 281.573C192.211 281.445 191.977 281.373 191.714 281.355C191.449 281.341 191.178 281.372 190.899 281.449C190.575 281.54 190.299 281.673 190.071 281.85C189.843 282.028 189.681 282.233 189.583 282.465C189.486 282.698 189.474 282.942 189.545 283.198C189.61 283.43 189.728 283.601 189.899 283.711C190.07 283.821 190.274 283.892 190.512 283.924C190.75 283.956 191.001 283.972 191.267 283.972L192.198 283.978C192.789 283.983 193.286 284.087 193.687 284.289C194.088 284.492 194.354 284.83 194.487 285.302C194.596 285.694 194.586 286.065 194.456 286.416C194.324 286.77 194.1 287.078 193.785 287.34C193.469 287.605 193.087 287.8 192.64 287.924C192.188 288.05 191.764 288.081 191.368 288.017C190.972 287.955 190.632 287.814 190.349 287.593C190.063 287.372 189.866 287.087 189.755 286.737L190.576 286.508Z" fill="#203E7F"/>
<path d="M178.326 283.803C178.829 283.71 179.284 283.75 179.691 283.921C180.098 284.092 180.438 284.367 180.71 284.748C180.983 285.129 181.169 285.587 181.267 286.123C181.368 286.668 181.356 287.167 181.233 287.62C181.108 288.076 180.886 288.455 180.569 288.756C180.249 289.061 179.847 289.257 179.363 289.346C178.986 289.415 178.633 289.407 178.304 289.323C177.976 289.239 177.692 289.089 177.452 288.873C177.212 288.657 177.038 288.385 176.93 288.059L177.754 287.908C177.862 288.14 178.042 288.331 178.293 288.48C178.543 288.632 178.849 288.674 179.212 288.608C179.534 288.549 179.8 288.414 180.011 288.202C180.221 287.992 180.365 287.724 180.444 287.397C180.521 287.072 180.523 286.707 180.448 286.302C180.372 285.888 180.24 285.539 180.053 285.255C179.863 284.972 179.633 284.768 179.362 284.642C179.088 284.516 178.789 284.483 178.463 284.543C178.248 284.582 178.061 284.655 177.9 284.762C177.739 284.868 177.611 285.002 177.516 285.164C177.42 285.326 177.365 285.509 177.35 285.714L176.525 285.865C176.514 285.54 176.576 285.234 176.713 284.947C176.849 284.662 177.053 284.417 177.326 284.213C177.597 284.012 177.93 283.875 178.326 283.803Z" fill="#203E7F"/>
<path d="M169.247 285.452L169.851 290.873L169.046 290.962L168.955 290.143L168.899 290.149C168.83 290.429 168.675 290.666 168.435 290.862C168.195 291.057 167.912 291.173 167.587 291.209C167.526 291.216 167.45 291.223 167.357 291.231C167.265 291.239 167.196 291.243 167.148 291.243L167.054 290.396C167.083 290.4 167.149 290.404 167.251 290.407C167.352 290.412 167.458 290.409 167.568 290.397C167.832 290.367 168.061 290.286 168.256 290.153C168.448 290.022 168.594 289.853 168.693 289.647C168.789 289.443 168.824 289.219 168.796 288.975L168.414 285.544L169.247 285.452Z" fill="#203E7F"/>
<path d="M161.281 286.256L161.62 291.7L160.783 291.752L160.444 286.308L161.281 286.256ZM161.251 292.633C161.414 292.623 161.558 292.67 161.683 292.774C161.806 292.878 161.872 293.008 161.882 293.164C161.892 293.32 161.842 293.457 161.733 293.575C161.622 293.693 161.485 293.757 161.322 293.768C161.159 293.778 161.016 293.731 160.893 293.627C160.768 293.523 160.701 293.393 160.691 293.237C160.681 293.081 160.732 292.944 160.843 292.826C160.952 292.708 161.088 292.643 161.251 292.633Z" fill="#203E7F"/>
<path d="M155.76 284.596L155.742 292.096L154.932 292.094L154.934 291.228L154.835 291.228C154.773 291.322 154.687 291.443 154.578 291.589C154.467 291.738 154.308 291.87 154.101 291.986C153.893 292.104 153.611 292.162 153.256 292.161C152.797 292.16 152.392 292.044 152.042 291.814C151.692 291.583 151.42 291.257 151.224 290.835C151.029 290.413 150.932 289.916 150.933 289.343C150.935 288.765 151.034 288.265 151.232 287.842C151.429 287.421 151.702 287.095 152.051 286.864C152.399 286.635 152.801 286.521 153.255 286.522C153.606 286.523 153.886 286.582 154.097 286.698C154.307 286.817 154.469 286.951 154.582 287.101C154.695 287.252 154.783 287.378 154.844 287.478L154.915 287.478L154.922 284.594L155.76 284.596ZM154.925 289.367C154.926 288.955 154.866 288.592 154.746 288.276C154.626 287.964 154.45 287.718 154.219 287.54C153.987 287.364 153.703 287.276 153.367 287.275C153.017 287.274 152.724 287.366 152.489 287.55C152.252 287.737 152.074 287.987 151.955 288.302C151.833 288.619 151.772 288.971 151.771 289.359C151.77 289.743 151.829 290.089 151.946 290.397C152.061 290.707 152.237 290.953 152.474 291.133C152.707 291.316 153.002 291.408 153.357 291.409C153.698 291.41 153.985 291.324 154.217 291.152C154.45 290.982 154.625 290.743 154.744 290.436C154.864 290.13 154.924 289.774 154.925 289.367Z" fill="#203E7F"/>
<path d="M140.599 291.716L140.65 291.008L143.47 291.213L143.418 291.921L140.599 291.716ZM142.501 293.165L141.665 293.104L142.044 287.919C142.062 287.683 142.04 287.503 141.981 287.38C141.918 287.259 141.834 287.175 141.729 287.127C141.62 287.081 141.505 287.054 141.382 287.045C141.29 287.038 141.214 287.037 141.154 287.043C141.094 287.05 141.047 287.056 141.011 287.061L140.896 286.297C140.954 286.28 141.034 286.265 141.138 286.251C141.241 286.235 141.37 286.232 141.526 286.244C141.762 286.261 141.99 286.328 142.209 286.446C142.426 286.564 142.601 286.732 142.735 286.951C142.866 287.169 142.92 287.437 142.897 287.753L142.501 293.165Z" fill="#203E7F"/>
<path d="M129.72 290.53L128.893 290.396L129.833 284.62C129.887 284.288 129.991 284.01 130.145 283.785C130.297 283.56 130.498 283.4 130.749 283.304C130.997 283.207 131.294 283.187 131.64 283.243C131.668 283.247 131.696 283.252 131.724 283.256C131.752 283.261 131.78 283.265 131.808 283.27L131.683 284.041C131.655 284.037 131.629 284.032 131.606 284.029C131.582 284.025 131.557 284.021 131.528 284.016C131.276 283.975 131.079 284.02 130.938 284.151C130.797 284.279 130.705 284.48 130.66 284.753L129.72 290.53ZM129.168 291.361C129.329 291.387 129.459 291.465 129.558 291.594C129.655 291.722 129.69 291.863 129.665 292.017C129.64 292.172 129.561 292.294 129.429 292.386C129.294 292.477 129.146 292.509 128.985 292.483C128.824 292.457 128.695 292.38 128.598 292.251C128.499 292.123 128.462 291.981 128.487 291.827C128.512 291.673 128.592 291.55 128.727 291.459C128.86 291.368 129.006 291.335 129.168 291.361Z" fill="#203E7F"/>
<path d="M121.981 285.95L121.042 285.725L120.505 284.501L120.365 284.175L119.567 282.333L120.507 282.558L121.03 283.779L121.16 284.088L121.981 285.95ZM118.264 286.461C118.444 285.715 118.734 285.103 119.134 284.625C119.535 284.146 120.005 283.816 120.546 283.634C121.087 283.452 121.659 283.434 122.262 283.578C122.865 283.723 123.366 283.999 123.765 284.406C124.163 284.814 124.431 285.321 124.57 285.929C124.708 286.536 124.687 287.213 124.507 287.959C124.327 288.704 124.036 289.316 123.636 289.795C123.235 290.273 122.765 290.604 122.224 290.785C121.683 290.967 121.111 290.986 120.508 290.841C119.905 290.696 119.404 290.42 119.006 290.013C118.607 289.606 118.339 289.098 118.201 288.491C118.062 287.883 118.083 287.206 118.264 286.461ZM119.092 286.659C118.944 287.272 118.922 287.813 119.025 288.283C119.126 288.753 119.324 289.138 119.62 289.437C119.913 289.737 120.273 289.938 120.702 290.04C121.13 290.143 121.544 290.128 121.944 289.995C122.341 289.862 122.693 289.609 123 289.237C123.304 288.864 123.53 288.372 123.678 287.76C123.826 287.148 123.849 286.607 123.748 286.137C123.645 285.667 123.447 285.282 123.154 284.983C122.859 284.683 122.497 284.482 122.069 284.379C121.641 284.276 121.228 284.292 120.83 284.425C120.43 284.558 120.078 284.811 119.774 285.183C119.467 285.555 119.24 286.047 119.092 286.659Z" fill="#203E7F"/>
<path d="M106.385 281.608L105.316 284.65L104.524 284.373L106.334 279.227L107.125 279.504L106.819 280.375L106.872 280.394C107.085 280.174 107.351 280.018 107.67 279.924C107.988 279.832 108.342 279.854 108.731 279.99C109.053 280.102 109.314 280.272 109.515 280.5C109.715 280.731 109.836 281.014 109.879 281.35C109.92 281.688 109.864 282.076 109.71 282.514L108.561 285.783L107.77 285.507L108.9 282.291C109.032 281.916 109.032 281.58 108.901 281.283C108.767 280.985 108.536 280.779 108.207 280.664C108.011 280.596 107.793 280.576 107.554 280.606C107.313 280.634 107.087 280.728 106.875 280.887C106.662 281.046 106.498 281.286 106.385 281.608Z" fill="#203E7F"/>
<path d="M97.068 275.566C97.5472 275.782 97.9126 276.074 98.1643 276.442C98.4129 276.811 98.5446 277.228 98.5594 277.694C98.571 278.162 98.4614 278.65 98.2307 279.159C98 279.668 97.7039 280.074 97.3423 280.379C96.9776 280.685 96.5785 280.871 96.1452 280.938C95.7088 281.006 95.2661 280.939 94.8171 280.737C94.5581 280.62 94.3219 280.462 94.1084 280.262C93.895 280.062 93.7286 279.818 93.6094 279.531C93.4892 279.246 93.4394 278.917 93.4601 278.544C93.4808 278.172 93.5962 277.754 93.8064 277.29L93.953 276.967L97.7865 278.694L97.4874 279.354L94.4309 277.977C94.3038 278.257 94.2466 278.533 94.2591 278.803C94.2695 279.073 94.3483 279.317 94.4957 279.537C94.6409 279.755 94.8517 279.927 95.128 280.051C95.4323 280.188 95.7299 280.232 96.0206 280.181C96.3083 280.131 96.5657 280.013 96.7929 279.828C97.0201 279.642 97.1958 279.412 97.32 279.138L97.5194 278.698C97.6895 278.323 97.7689 277.976 97.7577 277.657C97.7434 277.339 97.6504 277.059 97.4789 276.818C97.3064 276.58 97.0658 276.391 96.7571 276.252C96.5564 276.161 96.3624 276.108 96.175 276.091C95.9846 276.075 95.8041 276.098 95.6336 276.158C95.4621 276.221 95.3049 276.324 95.1619 276.468L94.5175 275.928C94.7086 275.713 94.9389 275.552 95.2084 275.445C95.477 275.34 95.7701 275.295 96.0878 275.311C96.4045 275.329 96.7313 275.414 97.068 275.566Z" fill="#203E7F"/>
<path d="M88.4329 271.653L85.8212 276.442L85.1094 276.056L85.5039 275.333L85.4539 275.306C85.2373 275.495 84.9742 275.602 84.6648 275.625C84.3553 275.649 84.057 275.583 83.7698 275.427C83.7156 275.398 83.6486 275.36 83.5685 275.314C83.4885 275.268 83.4288 275.232 83.3894 275.205L83.7975 274.457C83.8191 274.476 83.8712 274.517 83.9539 274.578C84.0334 274.64 84.122 274.697 84.2199 274.75C84.453 274.876 84.6878 274.94 84.9242 274.942C85.1575 274.945 85.3736 274.889 85.5727 274.776C85.7686 274.664 85.9255 274.5 86.0434 274.284L87.6961 271.254L88.4329 271.653Z" fill="#203E7F"/>
<path d="M81.8713 265.722C81.9911 265.798 82.0914 265.877 82.1724 265.956C82.2547 266.034 82.3081 266.093 82.3325 266.134L81.7537 266.641C81.6102 266.488 81.4688 266.375 81.3294 266.303C81.19 266.231 81.0355 266.215 80.8659 266.256C80.6956 266.293 80.4927 266.401 80.2572 266.579L79.8952 266.854L78.6323 272.552L77.866 272.063L78.9458 267.596L78.8979 267.565L75.2796 270.412L74.5133 269.923L79.8428 265.91C80.0828 265.729 80.3176 265.602 80.5471 265.53C80.7779 265.455 81.0034 265.435 81.2237 265.469C81.4419 265.501 81.6578 265.586 81.8713 265.722Z" fill="#203E7F"/>
<path d="M66.6804 257.86L61.9789 263.409L60.099 261.826C59.6644 261.46 59.3703 261.086 59.2169 260.703C59.062 260.322 59.0262 259.947 59.1095 259.577C59.1928 259.208 59.3729 258.86 59.65 258.533C59.927 258.206 60.2396 257.973 60.5879 257.833C60.9362 257.693 61.3101 257.667 61.7096 257.756C62.1076 257.846 62.5221 258.073 62.9531 258.436L64.4744 259.717L63.9602 260.324L62.4606 259.061C62.1636 258.811 61.8878 258.653 61.6333 258.587C61.3769 258.52 61.1406 258.532 60.9244 258.622C60.7049 258.713 60.501 258.869 60.3128 259.091C60.1246 259.313 60.0017 259.542 59.9442 259.779C59.8867 260.015 59.9112 260.255 60.0176 260.5C60.1224 260.746 60.3252 260.995 60.6258 261.249L61.8102 262.246L66.0067 257.293L66.6804 257.86ZM61.9496 258.148L62.6924 254.503L63.4748 255.161L62.7103 258.788L61.9496 258.148Z" fill="#203E7F"/>
<path d="M55.5934 247.977C55.9635 248.35 56.2001 248.754 56.3032 249.187C56.4029 249.621 56.3761 250.058 56.2226 250.498C56.0658 250.938 55.7884 251.354 55.3904 251.747C54.9924 252.139 54.5699 252.412 54.123 252.566C53.6727 252.721 53.2333 252.752 52.8046 252.659C52.3725 252.566 51.9831 252.345 51.6364 251.995C51.4364 251.794 51.2726 251.561 51.145 251.298C51.0174 251.035 50.9495 250.748 50.9413 250.437C50.9313 250.128 51.0028 249.803 51.1557 249.463C51.3086 249.123 51.5663 248.774 51.9289 248.417L52.1819 248.168L55.1423 251.153L54.6263 251.662L52.2659 249.281C52.0467 249.497 51.8944 249.734 51.8091 249.991C51.7221 250.246 51.708 250.502 51.7668 250.76C51.824 251.016 51.9593 251.252 52.1727 251.467C52.4077 251.704 52.6701 251.851 52.9598 251.908C53.2462 251.965 53.5289 251.947 53.8077 251.855C54.0866 251.763 54.3331 251.612 54.5473 251.401L54.8913 251.062C55.1848 250.773 55.3835 250.477 55.4876 250.175C55.5882 249.873 55.6017 249.579 55.5279 249.293C55.4524 249.008 55.2955 248.746 55.0572 248.506C54.9021 248.349 54.7402 248.23 54.5713 248.147C54.3991 248.064 54.2225 248.02 54.0414 248.016C53.8587 248.013 53.6748 248.053 53.4899 248.135L53.0817 247.401C53.3373 247.269 53.6102 247.201 53.9003 247.198C54.1887 247.196 54.4784 247.259 54.7694 247.388C55.0587 247.519 55.3334 247.715 55.5934 247.977Z" fill="#203E7F"/>
<path d="M47.8182 239.786C48.0398 240.052 48.1909 240.334 48.2713 240.633C48.3499 240.934 48.3467 241.227 48.2617 241.513C48.1749 241.801 47.9949 242.058 47.7216 242.285C47.4812 242.484 47.2468 242.599 47.0185 242.629C46.7884 242.66 46.5645 242.632 46.3468 242.545C46.1292 242.458 45.9197 242.336 45.7184 242.18C45.5138 242.024 45.3175 241.859 45.1296 241.686C44.8843 241.459 44.6875 241.273 44.539 241.129C44.3872 240.984 44.26 240.892 44.1574 240.855C44.0533 240.815 43.9493 240.838 43.8455 240.924L43.8236 240.942C43.554 241.166 43.406 241.414 43.3796 241.685C43.3517 241.954 43.4614 242.237 43.7088 242.533C43.9653 242.84 44.2339 243.025 44.5144 243.087C44.7949 243.15 45.0412 243.153 45.2535 243.097L45.5449 243.889C45.1988 243.992 44.8788 244.011 44.5849 243.947C44.2877 243.883 44.0206 243.767 43.7835 243.597C43.543 243.428 43.3348 243.237 43.1587 243.027C43.0464 242.892 42.9338 242.724 42.8208 242.523C42.7046 242.321 42.6273 242.097 42.5891 241.852C42.5493 241.605 42.5831 241.345 42.6906 241.071C42.7981 240.797 43.0185 240.522 43.3519 240.245L46.117 237.949L46.6543 238.593L46.086 239.064L46.1133 239.097C46.2408 239.065 46.399 239.057 46.5878 239.072C46.7766 239.088 46.9781 239.15 47.1921 239.258C47.4061 239.367 47.6148 239.543 47.8182 239.786ZM47.157 240.169C46.9445 239.915 46.7153 239.742 46.4694 239.651C46.222 239.558 45.9818 239.532 45.749 239.575C45.5146 239.616 45.31 239.709 45.1351 239.854L44.5449 240.344C44.6005 240.344 44.6807 240.379 44.7854 240.449C44.8868 240.518 44.9976 240.605 45.1178 240.708C45.2347 240.811 45.3475 240.913 45.4561 241.013C45.5615 241.114 45.6476 241.194 45.7143 241.256C45.8758 241.405 46.0419 241.532 46.2125 241.636C46.3798 241.74 46.5489 241.797 46.7198 241.806C46.8874 241.814 47.0531 241.751 47.2171 241.615C47.4411 241.429 47.5415 241.205 47.5181 240.945C47.4914 240.684 47.371 240.425 47.157 240.169Z" fill="#203E7F"/>
<path d="M40.3111 230.413C40.6049 230.831 40.7589 231.261 40.7731 231.701C40.7872 232.142 40.6776 232.565 40.4443 232.97C40.211 233.375 39.8711 233.733 39.4245 234.045C38.9701 234.362 38.5107 234.558 38.0461 234.634C37.5783 234.709 37.1409 234.665 36.7339 234.501C36.3237 234.337 35.9771 234.054 35.6941 233.651C35.4738 233.337 35.3334 233.013 35.2731 232.68C35.2128 232.347 35.231 232.027 35.3278 231.72C35.4246 231.413 35.5992 231.142 35.8516 230.908L36.3331 231.594C36.166 231.789 36.067 232.031 36.0362 232.321C36.0022 232.61 36.0912 232.906 36.3034 233.208C36.4911 233.476 36.7256 233.662 37.0069 233.766C37.2849 233.869 37.5895 233.889 37.9208 233.825C38.2488 233.761 38.5818 233.611 38.9196 233.375C39.2653 233.134 39.5281 232.87 39.7083 232.583C39.887 232.293 39.9773 232 39.9789 231.701C39.9792 231.401 39.8841 231.115 39.6937 230.844C39.5685 230.665 39.4239 230.525 39.2597 230.423C39.0956 230.321 38.9199 230.261 38.7326 230.241C38.5454 230.222 38.3553 230.247 38.1622 230.319L37.6807 229.633C37.972 229.487 38.2772 229.417 38.5963 229.423C38.9121 229.427 39.2198 229.512 39.5196 229.675C39.816 229.837 40.0799 230.084 40.3111 230.413Z" fill="#203E7F"/>
<path d="M29.1186 223.62L29.7271 223.254L31.1917 225.671L30.5832 226.038L29.1186 223.62ZM29.0367 226.007L28.6024 225.29L33.0567 222.609C33.2596 222.487 33.3939 222.366 33.4598 222.246C33.5223 222.126 33.5427 222.009 33.5207 221.895C33.4955 221.78 33.4511 221.67 33.3873 221.565C33.3394 221.486 33.2961 221.423 33.2573 221.378C33.2165 221.333 33.1839 221.298 33.1594 221.271L33.7161 220.737C33.7638 220.774 33.8232 220.831 33.8942 220.907C33.9672 220.982 34.0442 221.086 34.1251 221.22C34.2478 221.423 34.3244 221.647 34.3549 221.894C34.3842 222.139 34.3483 222.379 34.247 222.614C34.1446 222.847 33.9575 223.045 33.6857 223.209L29.0367 226.007Z" fill="#203E7F"/>
<path d="M21.69 214.135L26.3879 209.662L26.3529 209.584L19.8785 210.121L19.4987 209.28L27.2332 208.738L27.6072 209.566L22.0699 214.977L21.69 214.135Z" fill="#203E7F"/>
<path d="M23.0687 198.998L17.9476 200.876L17.6574 200.09L22.7786 198.212L23.0687 198.998ZM16.9465 200.789C17.0031 200.943 16.9996 201.094 16.9361 201.243C16.8718 201.39 16.7663 201.491 16.6196 201.545C16.4729 201.598 16.3273 201.59 16.1826 201.519C16.0372 201.447 15.9362 201.334 15.8796 201.18C15.8231 201.027 15.827 200.877 15.8913 200.73C15.9548 200.581 16.0598 200.479 16.2065 200.425C16.3532 200.371 16.4993 200.381 16.6448 200.454C16.7894 200.524 16.89 200.636 16.9465 200.789Z" fill="#203E7F"/>
<path d="M16.018 191.509L16.4405 192.168C16.3341 192.249 16.2376 192.351 16.1511 192.474C16.0616 192.595 16.0021 192.741 15.9726 192.913C15.9432 193.085 15.9639 193.288 16.0346 193.521C16.1315 193.841 16.2859 194.085 16.4978 194.253C16.7068 194.42 16.9235 194.47 17.1479 194.402C17.3474 194.342 17.4829 194.222 17.5546 194.042C17.6262 193.863 17.6538 193.607 17.6374 193.276L17.5928 192.443C17.5646 191.943 17.6326 191.543 17.7966 191.243C17.9585 190.945 18.2218 190.741 18.5868 190.631C18.886 190.54 19.1796 190.546 19.4675 190.647C19.7548 190.746 20.0128 190.928 20.2416 191.193C20.4704 191.458 20.6462 191.793 20.7692 192.198C20.9307 192.731 20.9487 193.206 20.8233 193.625C20.6979 194.043 20.4272 194.366 20.0111 194.593L19.5898 193.889C19.8489 193.732 20.0181 193.531 20.0975 193.287C20.1762 193.041 20.1658 192.754 20.0661 192.425C19.9527 192.051 19.7834 191.778 19.5581 191.606C19.3298 191.433 19.1035 191.38 18.8791 191.448C18.6977 191.502 18.5651 191.611 18.4812 191.775C18.395 191.94 18.3611 192.162 18.3796 192.444L18.4395 193.375C18.4711 193.887 18.4019 194.291 18.232 194.587C18.059 194.882 17.7924 195.083 17.4319 195.192C17.1373 195.281 16.8515 195.277 16.5747 195.18C16.2972 195.08 16.0502 194.906 15.8337 194.657C15.6165 194.406 15.4523 194.097 15.341 193.73C15.1843 193.214 15.1747 192.774 15.312 192.411C15.4487 192.046 15.684 191.745 16.018 191.509Z" fill="#203E7F"/>
<path d="M15.2091 180.698L12.0546 181.366L11.8799 180.546L17.2162 179.416L17.3909 180.236L16.4876 180.427L16.4994 180.483C16.797 180.55 17.0689 180.696 17.3151 180.92C17.5589 181.144 17.7238 181.458 17.8096 181.861C17.8806 182.194 17.8708 182.506 17.7802 182.796C17.6872 183.087 17.5083 183.338 17.2434 183.549C16.9762 183.76 16.6156 183.914 16.1616 184.01L12.7709 184.728L12.5962 183.908L15.9314 183.202C16.3205 183.12 16.6077 182.945 16.7929 182.678C16.9777 182.409 17.0338 182.105 16.9613 181.764C16.9179 181.561 16.8216 181.364 16.6725 181.176C16.5229 180.985 16.3251 180.84 16.0791 180.742C15.8326 180.642 15.5426 180.627 15.2091 180.698Z" fill="#203E7F"/>
<path d="M15.6526 170.372C15.6955 170.715 15.6699 171.034 15.5757 171.33C15.4791 171.626 15.3178 171.872 15.0917 172.067C14.8633 172.262 14.5729 172.382 14.2205 172.426C13.9103 172.464 13.6513 172.434 13.4434 172.336C13.2331 172.238 13.0599 172.094 12.9239 171.903C12.7879 171.713 12.6775 171.497 12.5925 171.258C12.505 171.016 12.429 170.771 12.3646 170.524C12.2812 170.2 12.2161 169.937 12.1693 169.736C12.12 169.532 12.0624 169.386 11.9966 169.299C11.9305 169.209 11.8305 169.173 11.6966 169.19L11.6684 169.193C11.3207 169.236 11.0624 169.365 10.8936 169.579C10.7245 169.791 10.6639 170.089 10.7119 170.472C10.7616 170.869 10.8875 171.169 11.0896 171.373C11.2916 171.577 11.4971 171.712 11.7059 171.779L11.5228 172.604C11.1763 172.504 10.8967 172.348 10.684 172.136C10.4687 171.921 10.3071 171.679 10.1993 171.409C10.0888 171.136 10.0165 170.864 9.9824 170.591C9.96063 170.417 9.95677 170.215 9.97082 169.984C9.98222 169.751 10.0381 169.521 10.1385 169.294C10.2386 169.065 10.4079 168.863 10.6463 168.691C10.8847 168.518 11.2189 168.405 11.6488 168.351L15.2151 167.907L15.3192 168.739L14.5862 168.83L14.5915 168.872C14.716 168.914 14.8535 168.993 15.0039 169.107C15.1543 169.222 15.2901 169.383 15.4114 169.59C15.5328 169.797 15.6131 170.057 15.6526 170.372ZM14.8896 170.338C14.8484 170.009 14.7491 169.74 14.5916 169.531C14.4339 169.319 14.2456 169.168 14.0268 169.079C13.8077 168.987 13.5854 168.955 13.3599 168.983L12.5987 169.077C12.6454 169.107 12.6939 169.18 12.7441 169.296C12.7917 169.409 12.8381 169.541 12.8834 169.693C12.926 169.843 12.9658 169.99 13.0029 170.133C13.0372 170.274 13.0659 170.389 13.0888 170.476C13.1441 170.689 13.2152 170.885 13.3022 171.065C13.3865 171.243 13.4981 171.382 13.637 171.482C13.7733 171.579 13.9472 171.615 14.1586 171.589C14.4476 171.553 14.6527 171.419 14.7739 171.187C14.8925 170.952 14.9311 170.67 14.8896 170.338Z" fill="#203E7F"/>
<path d="M7.16065 160.409L14.4188 159.95L14.4721 160.786L7.21393 161.246L7.16065 160.409Z" fill="#203E7F"/>
<path d="M8.72342 144.831C8.36197 144.857 8.0748 145.016 7.86191 145.309C7.64903 145.603 7.53224 145.969 7.51155 146.409C7.49642 146.731 7.5352 147.015 7.62791 147.261C7.72072 147.505 7.855 147.698 8.03075 147.841C8.20661 147.982 8.41042 148.058 8.64217 148.069C8.83608 148.078 9.00497 148.04 9.14883 147.955C9.29044 147.866 9.41081 147.751 9.50993 147.609C9.6067 147.466 9.68842 147.316 9.7551 147.158C9.81942 147 9.87249 146.854 9.91431 146.721L10.1477 145.993C10.2062 145.806 10.2847 145.599 10.3831 145.371C10.4816 145.141 10.6116 144.923 10.7729 144.718C10.932 144.509 11.1319 144.341 11.3726 144.213C11.6133 144.084 11.9039 144.028 12.2444 144.044C12.637 144.062 12.9869 144.182 13.2941 144.402C13.6014 144.621 13.8392 144.931 14.0076 145.332C14.176 145.731 14.2471 146.209 14.2209 146.768C14.1964 147.288 14.0913 147.734 13.9054 148.107C13.7197 148.478 13.4716 148.765 13.161 148.968C12.8506 149.169 12.496 149.274 12.0974 149.284L12.1401 148.376C12.4156 148.365 12.6469 148.284 12.8342 148.131C13.0193 147.977 13.1614 147.777 13.2605 147.533C13.3575 147.286 13.4127 147.019 13.4263 146.73C13.4421 146.394 13.4019 146.09 13.3057 145.818C13.2071 145.545 13.0633 145.327 12.8744 145.161C12.6831 144.996 12.455 144.907 12.1902 144.894C11.949 144.883 11.7495 144.941 11.5918 145.069C11.4341 145.197 11.3028 145.368 11.1979 145.584C11.0929 145.799 10.999 146.033 10.916 146.285L10.6186 147.167C10.4287 147.727 10.1746 148.165 9.85636 148.482C9.53809 148.799 9.1342 148.946 8.64468 148.923C8.23794 148.904 7.88839 148.777 7.59604 148.543C7.30144 148.306 7.07897 147.997 6.92865 147.615C6.77607 147.231 6.71069 146.808 6.73249 146.344C6.75452 145.876 6.85805 145.464 7.04309 145.107C7.22576 144.751 7.46635 144.473 7.76487 144.274C8.0635 144.072 8.39637 143.974 8.76347 143.98L8.72342 144.831Z" fill="#203E7F"/>
<path d="M9.62778 133.372L10.333 133.457L9.9954 136.263L9.29019 136.179L9.62778 133.372ZM8.091 135.206L8.19109 134.374L13.3532 134.991C13.5883 135.019 13.7687 135.006 13.8944 134.952C14.0181 134.895 14.1064 134.815 14.1594 134.711C14.2103 134.605 14.2431 134.491 14.2578 134.369C14.2688 134.277 14.2731 134.202 14.2708 134.142C14.2661 134.082 14.2624 134.033 14.2596 133.997L15.0274 133.917C15.0418 133.976 15.0535 134.058 15.0625 134.161C15.0738 134.265 15.0702 134.395 15.0515 134.55C15.0233 134.785 14.945 135.009 14.8168 135.223C14.6888 135.434 14.5125 135.601 14.2879 135.725C14.0635 135.846 13.7938 135.887 13.4788 135.85L8.091 135.206Z" fill="#203E7F"/>
<path d="M14.0168 125.733L10.8487 125.133L11.0057 124.31L16.3649 125.325L16.2079 126.149L15.3007 125.977L15.2901 126.033C15.5383 126.21 15.7324 126.449 15.8726 126.75C16.0105 127.051 16.0408 127.404 15.9636 127.808C15.8997 128.143 15.7697 128.427 15.5735 128.66C15.3749 128.892 15.1126 129.054 14.7865 129.147C14.458 129.239 14.0659 129.241 13.61 129.155L10.2047 128.51L10.3617 127.686L13.7112 128.321C14.1019 128.395 14.4345 128.345 14.7088 128.17C14.9835 127.994 15.1535 127.734 15.2187 127.392C15.2577 127.188 15.2451 126.97 15.1808 126.738C15.1169 126.504 14.9906 126.295 14.8017 126.11C14.6134 125.922 14.3517 125.797 14.0168 125.733Z" fill="#203E7F"/>
<path d="M18.5817 115.772C18.4566 116.209 18.2357 116.563 17.919 116.835C17.6001 117.106 17.2109 117.279 16.7515 117.352C16.2898 117.425 15.7812 117.383 15.2256 117.225C14.6745 117.068 14.2234 116.837 13.8721 116.533C13.5209 116.229 13.283 115.877 13.1586 115.477C13.0342 115.078 13.0351 114.657 13.1616 114.216C13.2593 113.874 13.3934 113.621 13.564 113.455C13.7329 113.286 13.9041 113.17 14.0775 113.106C14.2493 113.04 14.3892 112.99 14.4972 112.956L14.5168 112.888L11.9346 112.153L12.1652 111.348L19.1604 113.338L18.9376 114.116L18.1315 113.887L18.1041 113.982C18.1828 114.069 18.2794 114.187 18.3939 114.338C18.5061 114.488 18.5901 114.68 18.6459 114.915C18.6995 115.15 18.6781 115.435 18.5817 115.772ZM17.8888 115.457C17.9814 115.134 17.9753 114.837 17.8706 114.566C17.7637 114.294 17.5766 114.057 17.3092 113.856C17.0396 113.654 16.7067 113.496 16.3105 113.383C15.9188 113.272 15.5598 113.231 15.2335 113.262C14.9049 113.291 14.6267 113.394 14.3989 113.571C14.1688 113.746 14.0069 113.998 13.913 114.326C13.8153 114.667 13.8215 114.977 13.9317 115.254C14.0402 115.529 14.2274 115.765 14.4931 115.964C14.7572 116.16 15.0737 116.31 15.4426 116.415C15.816 116.521 16.1716 116.561 16.5093 116.534C16.8454 116.504 17.1356 116.402 17.38 116.228C17.6228 116.051 17.7924 115.794 17.8888 115.457Z" fill="#203E7F"/>
<path d="M21.4289 106.04L16.2901 104.211L16.5727 103.422L21.7115 105.252L21.4289 106.04ZM15.5774 103.505C15.5223 103.659 15.4224 103.773 15.2776 103.847C15.1337 103.919 14.9881 103.929 14.8409 103.877C14.6937 103.824 14.5872 103.725 14.5215 103.578C14.4566 103.429 14.4517 103.278 14.5068 103.124C14.5619 102.971 14.6614 102.858 14.8054 102.786C14.9501 102.712 15.0961 102.701 15.2433 102.753C15.3905 102.806 15.4965 102.906 15.5614 103.055C15.6272 103.202 15.6325 103.352 15.5774 103.505Z" fill="#203E7F"/>
<path d="M24.1765 98.9982C23.9811 99.4502 23.7021 99.8006 23.3393 100.049C22.9774 100.296 22.5615 100.432 22.0917 100.457C21.6228 100.479 21.1294 100.38 20.6117 100.157C20.0896 99.9332 19.6747 99.643 19.367 99.2867C19.0603 98.9283 18.8725 98.5333 18.8036 98.1018C18.7357 97.6682 18.7994 97.2253 18.9947 96.7733C19.1901 96.3213 19.4687 95.972 19.8305 95.7254C20.1933 95.4767 20.6103 95.3414 21.0814 95.3195C21.5534 95.2955 22.0505 95.3956 22.5725 95.6197C23.0903 95.842 23.5014 96.1319 23.806 96.4894C24.1115 96.8448 24.2982 97.2393 24.3662 97.6729C24.435 98.1044 24.3718 98.5462 24.1765 98.9982ZM23.4847 98.7012C23.6331 98.3578 23.6671 98.0375 23.5866 97.7401C23.5062 97.4428 23.3454 97.1793 23.1043 96.9495C22.8632 96.7197 22.5751 96.5329 22.2401 96.389C21.9051 96.2452 21.5699 96.1644 21.2346 96.1467C20.8992 96.1289 20.5945 96.1926 20.3203 96.3377C20.0461 96.4827 19.8349 96.727 19.6865 97.0703C19.5381 97.4137 19.5052 97.7345 19.5878 98.0328C19.6704 98.331 19.8334 98.5955 20.0767 98.8262C20.32 99.0569 20.6091 99.2442 20.9441 99.3881C21.2791 99.5319 21.6132 99.6122 21.9464 99.629C22.2796 99.6458 22.5821 99.5812 22.8541 99.4352C23.1261 99.2892 23.3363 99.0445 23.4847 98.7012Z" fill="#203E7F"/>
<path d="M29.7315 76.7815L29.2706 77.532C29.0271 77.4444 28.7894 77.4061 28.5576 77.4172C28.327 77.4262 28.1078 77.4755 27.9 77.565C27.6915 77.6512 27.5006 77.7719 27.3276 77.927C27.1545 78.0821 27.0048 78.2625 26.8784 78.4683C26.6479 78.8435 26.5341 79.2414 26.537 79.6619C26.5411 80.0804 26.6729 80.4923 26.9324 80.8975C27.1932 81.3008 27.5923 81.6664 28.1298 81.9945C28.6674 82.3225 29.1756 82.5107 29.6544 82.5589C30.1345 82.605 30.5624 82.5348 30.9383 82.3481C31.3153 82.1594 31.6191 81.8775 31.8495 81.5023C31.9759 81.2965 32.0691 81.0816 32.129 80.8574C32.1889 80.6333 32.2109 80.4096 32.1952 80.1864C32.1787 79.96 32.122 79.7424 32.0253 79.5336C31.9277 79.3215 31.7855 79.1279 31.5985 78.9528L32.0595 78.2023C32.342 78.4525 32.5628 78.7286 32.7217 79.0308C32.8805 79.3331 32.9797 79.6488 33.0192 79.978C33.0567 80.3059 33.0361 80.6358 32.9572 80.9677C32.8797 81.2976 32.7448 81.6188 32.5528 81.9315C32.2281 82.46 31.8101 82.8511 31.2987 83.1048C30.7872 83.3584 30.2206 83.4577 29.5987 83.4027C28.9768 83.3476 28.3385 83.1203 27.6838 82.7207C27.029 82.3211 26.5357 81.8577 26.2038 81.3307C25.8718 80.8036 25.7029 80.2553 25.697 79.6859C25.6912 79.1166 25.8505 78.5676 26.1752 78.0391C26.3672 77.7264 26.593 77.4606 26.8524 77.2418C27.1131 77.0209 27.3995 76.8532 27.7116 76.7386C28.0217 76.6228 28.3479 76.5667 28.6902 76.5703C29.0304 76.5728 29.3775 76.6432 29.7315 76.7815Z" fill="#203E7F"/>
<path d="M40.0779 70.4344C39.7804 70.8268 39.4257 71.1006 39.014 71.2557C38.6036 71.409 38.1672 71.4418 37.7048 71.3543C37.2438 71.2648 36.7883 71.0506 36.3382 70.7115C35.8844 70.3696 35.5505 69.9891 35.3365 69.57C35.1239 69.149 35.0356 68.7209 35.0715 68.2855C35.1089 67.8483 35.2763 67.4335 35.5738 67.0412C35.8714 66.6488 36.2253 66.376 36.6356 66.2227C37.0474 66.0675 37.4847 66.0354 37.9476 66.1263C38.412 66.2153 38.871 66.4307 39.3248 66.7726C39.7749 67.1116 40.1052 67.4909 40.3159 67.9105C40.5281 68.3282 40.6154 68.7557 40.5781 69.1929C40.5421 69.6282 40.3754 70.042 40.0779 70.4344ZM39.4766 69.9814C39.7026 69.6834 39.812 69.3804 39.8047 69.0726C39.7974 68.7648 39.704 68.4707 39.5245 68.1902C39.345 67.9097 39.1097 67.6598 38.8185 67.4404C38.5273 67.221 38.2209 67.0628 37.8993 66.9658C37.5778 66.8688 37.2665 66.8581 36.9656 66.9337C36.6646 67.0093 36.4011 67.1961 36.1751 67.4942C35.9491 67.7922 35.8407 68.0959 35.8499 68.4051C35.859 68.7143 35.9543 69.0099 36.1357 69.2918C36.3171 69.5737 36.5534 69.8243 36.8446 70.0437C37.1358 70.2631 37.4412 70.4206 37.7609 70.5162C38.0806 70.6118 38.39 70.6211 38.689 70.5441C38.9881 70.467 39.2506 70.2795 39.4766 69.9814Z" fill="#203E7F"/>
<path d="M47.5285 61.0594C47.2226 61.3956 46.8675 61.6155 46.4629 61.719C46.0566 61.8209 45.631 61.8032 45.1862 61.666C44.7396 61.5272 44.302 61.2642 43.8734 60.8769C43.4484 60.4927 43.1457 60.0867 42.9652 59.6588C42.7848 59.2308 42.7273 58.8103 42.7927 58.3971C42.8581 57.984 43.0453 57.6075 43.3543 57.2677C43.5933 57.005 43.8259 56.8372 44.0523 56.7642C44.2786 56.6879 44.4837 56.6594 44.6676 56.6789C44.8514 56.695 44.9991 56.712 45.1108 56.73L45.1585 56.6774L43.1668 54.8773L43.7307 54.2574L49.1264 59.1338L48.5816 59.7327L47.9598 59.1708L47.8929 59.2444C47.9252 59.3566 47.9594 59.5055 47.9953 59.6911C48.0295 59.8752 48.0197 60.0849 47.9657 60.3201C47.91 60.5538 47.7643 60.8002 47.5285 61.0594ZM47.0464 60.4705C47.2726 60.2218 47.3988 59.9529 47.4249 59.6639C47.4493 59.3732 47.3862 59.0784 47.2356 58.7795C47.0832 58.4791 46.8542 58.1908 46.5486 57.9146C46.2465 57.6416 45.9424 57.4464 45.6362 57.3292C45.3282 57.2104 45.0329 57.1797 44.7503 57.2371C44.466 57.2928 44.2091 57.4468 43.9798 57.699C43.7408 57.9617 43.6093 58.2417 43.5853 58.5391C43.561 58.8331 43.6241 59.1278 43.7746 59.4234C43.9249 59.7155 44.1423 59.9902 44.4268 60.2474C44.7149 60.5077 45.0164 60.7004 45.3314 60.8256C45.6462 60.9474 45.9519 60.9843 46.2483 60.9363C46.5446 60.885 46.8107 60.7297 47.0464 60.4705Z" fill="#203E7F"/>
<path d="M56.2041 51.9754C55.8177 52.3317 55.4055 52.554 54.9675 52.6423C54.5296 52.7272 54.0924 52.6859 53.6559 52.5184C53.2196 52.3475 52.8114 52.0572 52.4314 51.6477C52.0514 51.2381 51.7913 50.8082 51.6511 50.3578C51.5111 49.9041 51.4946 49.4652 51.6018 49.0412C51.709 48.6138 51.9437 48.2333 52.3057 47.8995C52.5146 47.7069 52.7531 47.5514 53.0211 47.4331C53.2892 47.3148 53.5792 47.2567 53.8912 47.2588C54.2016 47.2592 54.5248 47.3412 54.8607 47.5048C55.1966 47.6685 55.5377 47.9368 55.8839 48.3099L56.1255 48.5703L53.0343 51.4203L52.5415 50.8893L55.0061 48.6169C54.7968 48.3913 54.5647 48.2317 54.31 48.1382C54.057 48.043 53.8003 48.0205 53.5399 48.0705C53.2813 48.119 53.0406 48.2459 52.8178 48.4513C52.5724 48.6776 52.4164 48.9341 52.3498 49.2209C52.2834 49.5043 52.2917 49.7865 52.3747 50.0674C52.4577 50.3483 52.6015 50.5989 52.806 50.8193L53.1345 51.1733C53.4147 51.4753 53.7044 51.6831 54.0037 51.7968C54.3031 51.9072 54.5975 51.9304 54.887 51.8664C55.1748 51.8007 55.4431 51.6531 55.692 51.4236C55.8539 51.2743 55.9792 51.117 56.0679 50.9515C56.1567 50.7827 56.2063 50.6081 56.2166 50.4279C56.2254 50.2459 56.1915 50.0615 56.1149 49.8745L56.8647 49.4923C56.9889 49.7513 57.0478 50.0254 57.0416 50.3146C57.0337 50.6019 56.9605 50.8885 56.8218 51.1741C56.6815 51.458 56.4756 51.7251 56.2041 51.9754Z" fill="#203E7F"/>
<path d="M69.2497 34.6716C69.0491 34.5195 68.8422 34.4019 68.6289 34.3189C68.4163 34.2325 68.1994 34.1836 67.9783 34.1722C67.7591 34.1594 67.5386 34.1863 67.3168 34.2529C67.0951 34.3195 66.876 34.4274 66.6597 34.5766C66.3049 34.8211 66.0458 35.1349 65.8822 35.518C65.7186 35.901 65.6746 36.3297 65.75 36.8039C65.8254 37.2781 66.0426 37.7739 66.4016 38.2913C66.7606 38.8087 67.1503 39.1855 67.5707 39.4219C67.9912 39.6583 68.413 39.7658 68.8361 39.7444C69.2592 39.723 69.6559 39.5846 70.0263 39.3293C70.3693 39.0928 70.6208 38.8116 70.7808 38.4857C70.9414 38.1564 71.0016 37.8072 70.9616 37.438C70.9221 37.0655 70.7756 36.6964 70.5219 36.3308L70.7764 36.2243L68.9754 37.4658L68.5301 36.8239L70.8106 35.2518L71.2559 35.8937C71.5974 36.3858 71.789 36.8863 71.8309 37.3952C71.8747 37.9027 71.7819 38.3836 71.5525 38.8379C71.3237 39.2889 70.9715 39.6783 70.4959 40.0062C69.9658 40.3717 69.4135 40.5684 68.8393 40.5962C68.267 40.6227 67.7095 40.4836 67.1668 40.1791C66.6261 39.8733 66.1372 39.4052 65.6999 38.775C65.372 38.3023 65.1405 37.8337 65.0054 37.369C64.8708 36.901 64.8281 36.4531 64.8771 36.0254C64.9261 35.5977 65.0612 35.2026 65.2823 34.8403C65.5035 34.4779 65.806 34.1644 66.19 33.8997C66.5058 33.682 66.8332 33.5268 67.1722 33.4339C67.5118 33.3379 67.8489 33.3025 68.1834 33.3278C68.5185 33.3498 68.8412 33.4307 69.1514 33.5705C69.4603 33.7084 69.7425 33.9034 69.9982 34.1556L69.2497 34.6716Z" fill="#203E7F"/>
<path d="M80.1914 33.4985L77.4214 28.7996L78.1446 28.3761L80.9146 33.0749L80.1914 33.4985ZM77.3275 27.8011C77.1865 27.8837 77.0367 27.907 76.8781 27.8709C76.7215 27.8337 76.6035 27.7478 76.5241 27.6132C76.4448 27.4786 76.4269 27.334 76.4705 27.1796C76.5161 27.0239 76.6094 26.9048 76.7504 26.8222C76.8913 26.7396 77.0401 26.717 77.1967 26.7542C77.3554 26.7902 77.4744 26.8755 77.5537 27.0101C77.6331 27.1447 77.6499 27.2899 77.6043 27.4456C77.5607 27.6 77.4684 27.7186 77.3275 27.8011Z" fill="#203E7F"/>
<path d="M84.3129 24.9189L84.646 25.5462L82.1459 26.8651L81.8128 26.2378L84.3129 24.9189ZM81.9287 24.6992L82.6699 24.3081L85.1079 28.8999C85.2189 29.109 85.3325 29.2498 85.4487 29.3223C85.566 29.3917 85.6822 29.4187 85.7974 29.4034C85.9135 29.3849 86.0261 29.347 86.1349 29.2896C86.2166 29.2465 86.2814 29.2069 86.3293 29.171C86.3761 29.1329 86.4135 29.1024 86.4416 29.0796L86.9454 29.665C86.9051 29.7103 86.845 29.7661 86.7649 29.8325C86.686 29.9009 86.5774 29.9715 86.4392 30.0444C86.2299 30.1549 86.0008 30.2182 85.752 30.2343C85.5054 30.2494 85.2672 30.1997 85.0376 30.0853C84.8101 29.9697 84.622 29.7719 84.4732 29.4917L81.9287 24.6992Z" fill="#203E7F"/>
<path d="M96.5639 24.9335L93.9782 18.1359L94.802 17.8246L95.9534 20.8516L99.5808 19.4806L98.4294 16.4536L99.2532 16.1422L101.839 22.9398L101.015 23.2511L99.8586 20.2108L96.2312 21.5818L97.3877 24.6221L96.5639 24.9335Z" fill="#203E7F"/>
<path d="M113.143 16.8433L112.301 13.7307L113.111 13.5132L114.535 18.7785L113.725 18.996L113.484 18.1047L113.429 18.1195C113.378 18.42 113.248 18.699 113.038 18.9565C112.827 19.2117 112.523 19.3927 112.125 19.4996C111.796 19.5881 111.484 19.5948 111.189 19.5196C110.893 19.4422 110.633 19.2769 110.407 19.0237C110.181 18.7682 110.008 18.4165 109.886 17.9686L108.981 14.6229L109.791 14.4054L110.681 17.6962C110.785 18.0801 110.975 18.3575 111.252 18.5283C111.531 18.6984 111.838 18.7383 112.175 18.648C112.376 18.5939 112.566 18.4875 112.747 18.3287C112.929 18.1694 113.063 17.9644 113.147 17.7137C113.233 17.4625 113.232 17.1723 113.143 16.8433Z" fill="#203E7F"/>
<path d="M122.158 16.8289L120.898 9.66617L121.723 9.52187L122.188 12.1659L122.258 12.1537C122.303 12.0498 122.366 11.9163 122.448 11.753C122.531 11.5869 122.665 11.429 122.847 11.2793C123.032 11.1269 123.299 11.0201 123.649 10.9589C124.102 10.8798 124.52 10.9232 124.905 11.0891C125.29 11.2549 125.616 11.5284 125.882 11.9096C126.149 12.2908 126.332 12.7636 126.431 13.3278C126.531 13.8967 126.521 14.4068 126.401 14.858C126.281 15.3068 126.069 15.6755 125.766 15.9639C125.463 16.25 125.088 16.4322 124.64 16.5104C124.295 16.5707 124.009 16.5619 123.781 16.4839C123.553 16.4036 123.37 16.2998 123.232 16.1725C123.094 16.0428 122.986 15.9343 122.908 15.847L122.81 15.8641L122.955 16.6895L122.158 16.8289ZM122.497 14.001C122.568 14.4067 122.691 14.7543 122.864 15.0436C123.037 15.3306 123.253 15.5415 123.513 15.6764C123.772 15.809 124.067 15.8464 124.398 15.7885C124.743 15.7282 125.015 15.5869 125.214 15.3647C125.415 15.1397 125.546 14.862 125.608 14.5315C125.672 14.1983 125.67 13.8405 125.603 13.4581C125.537 13.0804 125.419 12.7502 125.249 12.4674C125.081 12.182 124.864 11.971 124.6 11.8346C124.338 11.6954 124.031 11.6564 123.682 11.7175C123.346 11.7762 123.079 11.9106 122.88 12.1208C122.681 12.3286 122.55 12.5943 122.487 12.9177C122.423 13.2389 122.426 13.6 122.497 14.001Z" fill="#203E7F"/>
<path d="M134.697 14.9025C134.523 14.921 134.367 14.8745 134.228 14.763C134.09 14.6516 134.012 14.5087 133.993 14.3345C133.975 14.1603 134.021 14.0042 134.132 13.8662C134.244 13.7282 134.387 13.6499 134.561 13.6314C134.735 13.6128 134.891 13.6593 135.029 13.7708C135.167 13.8823 135.246 14.0251 135.265 14.1993C135.277 14.3147 135.259 14.4237 135.21 14.5265C135.164 14.629 135.096 14.7149 135.006 14.784C134.918 14.8505 134.815 14.89 134.697 14.9025Z" fill="#203E7F"/>
</svg>
