<svg width="100" height="100" viewBox="0 0 100 100" fill="none" xmlns="http://www.w3.org/2000/svg">
<rect width="100" height="100" fill="#222222"/>
<path d="M24.7496 47V32.4545H29.6644C30.8008 32.4545 31.7335 32.6487 32.4627 33.0369C33.1919 33.4205 33.7317 33.9484 34.082 34.6207C34.4324 35.2931 34.6076 36.0578 34.6076 36.9148C34.6076 37.7718 34.4324 38.5317 34.082 39.1946C33.7317 39.8575 33.1942 40.3783 32.4698 40.7571C31.7454 41.1312 30.8197 41.3182 29.6928 41.3182H25.7156V39.7273H29.636C30.4125 39.7273 31.0375 39.6136 31.511 39.3864C31.9892 39.1591 32.3349 38.8371 32.5479 38.4205C32.7657 37.9991 32.8746 37.4972 32.8746 36.9148C32.8746 36.3324 32.7657 35.8234 32.5479 35.3878C32.3301 34.9522 31.9821 34.616 31.5039 34.3793C31.0257 34.1378 30.3936 34.017 29.6076 34.017H26.511V47H24.7496ZM31.5962 40.4659L35.1758 47H33.1303L29.6076 40.4659H31.5962ZM41.772 47.2273C40.7209 47.2273 39.8142 46.9953 39.0518 46.5312C38.2943 46.0625 37.7095 45.4091 37.2976 44.571C36.8904 43.7282 36.6868 42.7481 36.6868 41.6307C36.6868 40.5133 36.8904 39.5284 37.2976 38.6761C37.7095 37.8191 38.2824 37.1515 39.0163 36.6733C39.755 36.1903 40.6167 35.9489 41.6016 35.9489C42.1697 35.9489 42.7308 36.0436 43.2848 36.233C43.8388 36.4223 44.343 36.7301 44.7976 37.1562C45.2521 37.5777 45.6143 38.1364 45.8842 38.8324C46.1541 39.5284 46.2891 40.3854 46.2891 41.4034V42.1136H37.88V40.6648H44.5845C44.5845 40.0492 44.4614 39.5 44.2152 39.017C43.9737 38.5341 43.6281 38.1529 43.1783 37.8736C42.7332 37.5942 42.2076 37.4545 41.6016 37.4545C40.9339 37.4545 40.3563 37.6203 39.8686 37.9517C39.3857 38.2784 39.014 38.7045 38.7536 39.2301C38.4931 39.7557 38.3629 40.3191 38.3629 40.9205V41.8864C38.3629 42.7102 38.505 43.4086 38.7891 43.9815C39.0779 44.5497 39.478 44.983 39.9893 45.2812C40.5007 45.5748 41.0949 45.7216 41.772 45.7216C42.2124 45.7216 42.6101 45.66 42.9652 45.5369C43.325 45.4091 43.6352 45.2197 43.8956 44.9688C44.156 44.7131 44.3572 44.3958 44.4993 44.017L46.1186 44.4716C45.9482 45.0208 45.6617 45.5038 45.2592 45.9205C44.8568 46.3324 44.3596 46.6544 43.7678 46.8864C43.1759 47.1136 42.5107 47.2273 41.772 47.2273ZM52.049 47.2557C51.3577 47.2557 50.7304 47.1255 50.1669 46.8651C49.6035 46.5999 49.156 46.2188 48.8246 45.7216C48.4931 45.2197 48.3274 44.6136 48.3274 43.9034C48.3274 43.2784 48.4505 42.7718 48.6967 42.3835C48.9429 41.9905 49.272 41.6828 49.6839 41.4602C50.0959 41.2377 50.5504 41.072 51.0476 40.9631C51.5495 40.8494 52.0537 40.7595 52.5604 40.6932C53.2232 40.608 53.7607 40.544 54.1726 40.5014C54.5893 40.4541 54.8923 40.3759 55.0817 40.267C55.2758 40.1581 55.3729 39.9687 55.3729 39.6989V39.642C55.3729 38.9413 55.1811 38.3968 54.7976 38.0085C54.4188 37.6203 53.8435 37.4261 53.0717 37.4261C52.2715 37.4261 51.6442 37.6013 51.1896 37.9517C50.7351 38.3021 50.4155 38.6761 50.2308 39.0739L48.6399 38.5057C48.924 37.8428 49.3028 37.3267 49.7763 36.9574C50.2545 36.5833 50.7753 36.3229 51.3388 36.1761C51.907 36.0246 52.4657 35.9489 53.0149 35.9489C53.3653 35.9489 53.7678 35.9915 54.2223 36.0767C54.6816 36.1572 55.1243 36.3253 55.5504 36.581C55.9813 36.8366 56.3388 37.2225 56.6229 37.7386C56.907 38.2547 57.049 38.946 57.049 39.8125V47H55.3729V45.5227H55.2876C55.174 45.7595 54.9846 46.0128 54.7195 46.2827C54.4543 46.5526 54.1016 46.7822 53.6612 46.9716C53.2209 47.161 52.6835 47.2557 52.049 47.2557ZM52.3047 45.75C52.9676 45.75 53.5263 45.6198 53.9808 45.3594C54.4401 45.099 54.7857 44.7628 55.0178 44.3509C55.2545 43.9389 55.3729 43.5057 55.3729 43.0511V41.517C55.3018 41.6023 55.1456 41.6804 54.9041 41.7514C54.6674 41.8177 54.3928 41.8769 54.0803 41.929C53.7725 41.9763 53.4718 42.0189 53.1783 42.0568C52.8894 42.09 52.6551 42.1184 52.4751 42.142C52.0395 42.1989 51.6323 42.2912 51.2536 42.419C50.8795 42.5421 50.5765 42.7292 50.3445 42.9801C50.1172 43.2263 50.0036 43.5625 50.0036 43.9886C50.0036 44.571 50.219 45.0114 50.6499 45.3097C51.0855 45.6032 51.6371 45.75 52.3047 45.75ZM64.5401 47.2273C63.5174 47.2273 62.6367 46.9858 61.8981 46.5028C61.1594 46.0199 60.5913 45.3546 60.1935 44.5071C59.7958 43.6596 59.5969 42.6913 59.5969 41.6023C59.5969 40.4943 59.8005 39.5166 60.2077 38.669C60.6197 37.8168 61.1926 37.1515 61.9265 36.6733C62.6651 36.1903 63.5269 35.9489 64.5117 35.9489C65.2788 35.9489 65.9701 36.0909 66.5856 36.375C67.2011 36.6591 67.7054 37.0568 68.0984 37.5682C68.4914 38.0795 68.7352 38.6761 68.8299 39.358H67.1538C67.0259 38.8608 66.7418 38.4205 66.3015 38.0369C65.8659 37.6487 65.2788 37.4545 64.5401 37.4545C63.8867 37.4545 63.3138 37.625 62.8214 37.9659C62.3337 38.3021 61.9525 38.7779 61.6779 39.3935C61.408 40.0043 61.2731 40.7216 61.2731 41.5455C61.2731 42.3883 61.4057 43.1222 61.6708 43.7472C61.9407 44.3722 62.3195 44.8575 62.8072 45.2031C63.2996 45.5488 63.8772 45.7216 64.5401 45.7216C64.9757 45.7216 65.3711 45.6458 65.7262 45.4943C66.0813 45.3428 66.382 45.125 66.6282 44.8409C66.8744 44.5568 67.0496 44.2159 67.1538 43.8182H68.8299C68.7352 44.4621 68.5008 45.0421 68.1268 45.5582C67.7575 46.0696 67.2674 46.4768 66.6566 46.7798C66.0505 47.0781 65.3451 47.2273 64.5401 47.2273ZM76.0245 36.0909V37.5114H70.3711V36.0909H76.0245ZM72.0188 33.4773H73.695V43.875C73.695 44.3485 73.7636 44.7036 73.9009 44.9403C74.043 45.1723 74.2229 45.3286 74.4407 45.4091C74.6632 45.4848 74.8976 45.5227 75.1438 45.5227C75.3285 45.5227 75.48 45.5133 75.5984 45.4943C75.7167 45.4706 75.8114 45.4517 75.8825 45.4375L76.2234 46.9432C76.1097 46.9858 75.9511 47.0284 75.7475 47.071C75.5439 47.1184 75.2859 47.142 74.9734 47.142C74.4999 47.142 74.0359 47.0402 73.5813 46.8366C73.1315 46.633 72.7575 46.3229 72.4592 45.9062C72.1656 45.4896 72.0188 44.964 72.0188 44.3295V33.4773ZM17.8443 64V57.4545H18.8159V58.4773H18.9011C19.0375 58.1278 19.2576 57.8565 19.5616 57.6634C19.8656 57.4673 20.2306 57.3693 20.6568 57.3693C21.0886 57.3693 21.448 57.4673 21.7349 57.6634C22.0247 57.8565 22.2505 58.1278 22.4125 58.4773H22.4806C22.6483 58.1392 22.8997 57.8707 23.2349 57.6719C23.5701 57.4702 23.9721 57.3693 24.4409 57.3693C25.0261 57.3693 25.5048 57.5526 25.877 57.919C26.2491 58.2827 26.4352 58.8494 26.4352 59.6193V64H25.4295V59.6193C25.4295 59.1364 25.2974 58.7912 25.0332 58.5838C24.769 58.3764 24.4579 58.2727 24.1 58.2727C23.6397 58.2727 23.2832 58.4119 23.0304 58.6903C22.7775 58.9659 22.6511 59.3153 22.6511 59.7386V64H21.6284V59.517C21.6284 59.1449 21.5076 58.8452 21.2662 58.6179C21.0247 58.3878 20.7136 58.2727 20.3329 58.2727C20.0716 58.2727 19.8272 58.3423 19.6 58.4815C19.3755 58.6207 19.1937 58.8139 19.0545 59.0611C18.9181 59.3054 18.85 59.5881 18.85 59.9091V64H17.8443ZM28.274 64V57.4545H29.2797V64H28.274ZM28.7853 56.3636C28.5893 56.3636 28.4203 56.2969 28.2782 56.1634C28.139 56.0298 28.0694 55.8693 28.0694 55.6818C28.0694 55.4943 28.139 55.3338 28.2782 55.2003C28.4203 55.0668 28.5893 55 28.7853 55C28.9814 55 29.149 55.0668 29.2882 55.2003C29.4302 55.3338 29.5012 55.4943 29.5012 55.6818C29.5012 55.8693 29.4302 56.0298 29.2882 56.1634C29.149 56.2969 28.9814 56.3636 28.7853 56.3636ZM32.1273 60.0625V64H31.1216V57.4545H32.0932V58.4773H32.1784C32.3319 58.1449 32.5648 57.8778 32.8773 57.6761C33.1898 57.4716 33.5932 57.3693 34.0875 57.3693C34.5307 57.3693 34.9185 57.4602 35.2509 57.642C35.5833 57.821 35.8418 58.0938 36.0265 58.4602C36.2111 58.8239 36.3034 59.2841 36.3034 59.8409V64H35.2978V59.9091C35.2978 59.3949 35.1642 58.9943 34.8972 58.7074C34.6301 58.4176 34.2637 58.2727 33.7978 58.2727C33.4767 58.2727 33.1898 58.3423 32.937 58.4815C32.687 58.6207 32.4895 58.8239 32.3446 59.0909C32.1998 59.358 32.1273 59.6818 32.1273 60.0625ZM38.1412 64V57.4545H39.1468V64H38.1412ZM38.6525 56.3636C38.4565 56.3636 38.2875 56.2969 38.1454 56.1634C38.0062 56.0298 37.9366 55.8693 37.9366 55.6818C37.9366 55.4943 38.0062 55.3338 38.1454 55.2003C38.2875 55.0668 38.4565 55 38.6525 55C38.8485 55 39.0162 55.0668 39.1554 55.2003C39.2974 55.3338 39.3684 55.4943 39.3684 55.6818C39.3684 55.8693 39.2974 56.0298 39.1554 56.1634C39.0162 56.2969 38.8485 56.3636 38.6525 56.3636ZM44.3638 66.4545V57.4545H45.3354V58.4943H45.4547C45.5286 58.3807 45.6309 58.2358 45.7615 58.0597C45.8951 57.8807 46.0854 57.7216 46.3326 57.5824C46.5826 57.4403 46.9206 57.3693 47.3468 57.3693C47.8979 57.3693 48.3837 57.5071 48.8042 57.7827C49.2246 58.0582 49.5527 58.4489 49.7885 58.9545C50.0243 59.4602 50.1422 60.0568 50.1422 60.7443C50.1422 61.4375 50.0243 62.0384 49.7885 62.5469C49.5527 63.0526 49.226 63.4446 48.8084 63.723C48.3908 63.9986 47.9093 64.1364 47.3638 64.1364C46.9434 64.1364 46.6067 64.0668 46.3539 63.9276C46.101 63.7855 45.9064 63.625 45.7701 63.446C45.6337 63.2642 45.5286 63.1136 45.4547 62.9943H45.3695V66.4545H44.3638ZM45.3525 60.7273C45.3525 61.2216 45.4249 61.6577 45.5698 62.0355C45.7147 62.4105 45.9263 62.7045 46.2047 62.9176C46.4831 63.1278 46.824 63.233 47.2275 63.233C47.6479 63.233 47.9988 63.1222 48.28 62.9006C48.5641 62.6761 48.7772 62.375 48.9192 61.9972C49.0641 61.6165 49.1365 61.1932 49.1365 60.7273C49.1365 60.267 49.0655 59.8523 48.9235 59.483C48.7843 59.1108 48.5726 58.8168 48.2885 58.6009C48.0073 58.3821 47.6536 58.2727 47.2275 58.2727C46.8184 58.2727 46.4746 58.3764 46.1962 58.5838C45.9178 58.7884 45.7076 59.0753 45.5655 59.4446C45.4235 59.8111 45.3525 60.2386 45.3525 60.7273ZM51.6763 64V57.4545H52.6479V58.4432H52.7161C52.8354 58.1193 53.0513 57.8565 53.3638 57.6548C53.6763 57.4531 54.0286 57.3523 54.4206 57.3523C54.4945 57.3523 54.5868 57.3537 54.6976 57.3565C54.8084 57.3594 54.8922 57.3636 54.949 57.3693V58.392C54.915 58.3835 54.8368 58.3707 54.7147 58.3537C54.5953 58.3338 54.4689 58.3239 54.3354 58.3239C54.0172 58.3239 53.7331 58.3906 53.4831 58.5241C53.236 58.6548 53.04 58.8366 52.8951 59.0696C52.753 59.2997 52.682 59.5625 52.682 59.858V64H51.6763ZM58.601 64.1364C58.0101 64.1364 57.4917 63.9957 57.0456 63.7145C56.6025 63.4332 56.2559 63.0398 56.0059 62.5341C55.7587 62.0284 55.6351 61.4375 55.6351 60.7614C55.6351 60.0795 55.7587 59.4844 56.0059 58.9759C56.2559 58.4673 56.6025 58.0724 57.0456 57.7912C57.4917 57.5099 58.0101 57.3693 58.601 57.3693C59.1919 57.3693 59.709 57.5099 60.1522 57.7912C60.5982 58.0724 60.9448 58.4673 61.1919 58.9759C61.4419 59.4844 61.5669 60.0795 61.5669 60.7614C61.5669 61.4375 61.4419 62.0284 61.1919 62.5341C60.9448 63.0398 60.5982 63.4332 60.1522 63.7145C59.709 63.9957 59.1919 64.1364 58.601 64.1364ZM58.601 63.233C59.0499 63.233 59.4192 63.1179 59.709 62.8878C59.9988 62.6577 60.2132 62.3551 60.3525 61.9801C60.4917 61.6051 60.5613 61.1989 60.5613 60.7614C60.5613 60.3239 60.4917 59.9162 60.3525 59.5384C60.2132 59.1605 59.9988 58.8551 59.709 58.6222C59.4192 58.3892 59.0499 58.2727 58.601 58.2727C58.1522 58.2727 57.7828 58.3892 57.4931 58.6222C57.2033 58.8551 56.9888 59.1605 56.8496 59.5384C56.7104 59.9162 56.6408 60.3239 56.6408 60.7614C56.6408 61.1989 56.7104 61.6051 56.8496 61.9801C56.9888 62.3551 57.2033 62.6577 57.4931 62.8878C57.7828 63.1179 58.1522 63.233 58.601 63.233ZM63.1021 57.4545H64.1078V64.4773C64.1078 64.8807 64.0382 65.2301 63.899 65.5256C63.7626 65.821 63.5552 66.0497 63.2768 66.2116C63.0012 66.3736 62.6532 66.4545 62.2328 66.4545C62.1987 66.4545 62.1646 66.4545 62.1305 66.4545C62.0964 66.4545 62.0623 66.4545 62.0282 66.4545V65.517C62.0623 65.517 62.0936 65.517 62.122 65.517C62.1504 65.517 62.1816 65.517 62.2157 65.517C62.5225 65.517 62.747 65.4261 62.889 65.2443C63.0311 65.0653 63.1021 64.8097 63.1021 64.4773V57.4545ZM63.5964 56.3636C63.4004 56.3636 63.2314 56.2969 63.0893 56.1634C62.9501 56.0298 62.8805 55.8693 62.8805 55.6818C62.8805 55.4943 62.9501 55.3338 63.0893 55.2003C63.2314 55.0668 63.4004 55 63.5964 55C63.7924 55 63.96 55.0668 64.0993 55.2003C64.2413 55.3338 64.3123 55.4943 64.3123 55.6818C64.3123 55.8693 64.2413 56.0298 64.0993 56.1634C63.96 56.2969 63.7924 56.3636 63.5964 56.3636ZM68.6941 64.1364C68.0634 64.1364 67.5194 63.9972 67.062 63.7188C66.6074 63.4375 66.2566 63.0455 66.0094 62.5426C65.7651 62.0369 65.6429 61.4489 65.6429 60.7784C65.6429 60.108 65.7651 59.517 66.0094 59.0057C66.2566 58.4915 66.6003 58.0909 67.0407 57.804C67.4838 57.5142 68.0009 57.3693 68.5918 57.3693C68.9327 57.3693 69.2694 57.4261 69.6017 57.5398C69.9341 57.6534 70.2367 57.8381 70.5094 58.0938C70.7821 58.3466 70.9995 58.6818 71.1614 59.0994C71.3233 59.517 71.4043 60.0312 71.4043 60.642V61.0682H66.3588V60.1989H70.3816C70.3816 59.8295 70.3077 59.5 70.16 59.2102C70.0151 58.9205 69.8077 58.6918 69.5378 58.5241C69.2708 58.3565 68.9554 58.2727 68.5918 58.2727C68.1912 58.2727 67.8446 58.3722 67.552 58.571C67.2623 58.767 67.0392 59.0227 66.883 59.3381C66.7267 59.6534 66.6486 59.9915 66.6486 60.3523V60.9318C66.6486 61.4261 66.7338 61.8452 66.9043 62.1889C67.0776 62.5298 67.3176 62.7898 67.6245 62.9688C67.9313 63.1449 68.2878 63.233 68.6941 63.233C68.9583 63.233 69.1969 63.196 69.41 63.1222C69.6259 63.0455 69.812 62.9318 69.9682 62.7812C70.1245 62.6278 70.2452 62.4375 70.3304 62.2102L71.302 62.483C71.1998 62.8125 71.0279 63.1023 70.7864 63.3523C70.5449 63.5994 70.2466 63.7926 69.8915 63.9318C69.5364 64.0682 69.1373 64.1364 68.6941 64.1364ZM75.5932 64.1364C74.9796 64.1364 74.4512 63.9915 74.008 63.7017C73.5648 63.4119 73.2239 63.0128 72.9853 62.5043C72.7466 61.9957 72.6273 61.4148 72.6273 60.7614C72.6273 60.0966 72.7495 59.5099 72.9938 59.0014C73.2409 58.4901 73.5847 58.0909 74.025 57.804C74.4682 57.5142 74.9853 57.3693 75.5762 57.3693C76.0364 57.3693 76.4512 57.4545 76.8205 57.625C77.1898 57.7955 77.4924 58.0341 77.7282 58.3409C77.964 58.6477 78.1103 59.0057 78.1671 59.4148H77.1614C77.0847 59.1165 76.9142 58.8523 76.65 58.6222C76.3887 58.3892 76.0364 58.2727 75.5932 58.2727C75.2012 58.2727 74.8574 58.375 74.562 58.5795C74.2694 58.7812 74.0407 59.0668 73.8759 59.4361C73.714 59.8026 73.633 60.233 73.633 60.7273C73.633 61.233 73.7125 61.6733 73.8716 62.0483C74.0336 62.4233 74.2608 62.7145 74.5534 62.9219C74.8489 63.1293 75.1955 63.233 75.5932 63.233C75.8546 63.233 76.0918 63.1875 76.3049 63.0966C76.5179 63.0057 76.6983 62.875 76.8461 62.7045C76.9938 62.5341 77.0989 62.3295 77.1614 62.0909H78.1671C78.1103 62.4773 77.9696 62.8253 77.7452 63.1349C77.5236 63.4418 77.2296 63.6861 76.8631 63.8679C76.4995 64.0469 76.0762 64.1364 75.5932 64.1364ZM82.4838 57.4545V58.3068H79.0918V57.4545H82.4838ZM80.0804 55.8864H81.0861V62.125C81.0861 62.4091 81.1273 62.6222 81.2097 62.7642C81.2949 62.9034 81.4029 62.9972 81.5336 63.0455C81.6671 63.0909 81.8077 63.1136 81.9554 63.1136C82.0662 63.1136 82.1571 63.108 82.2282 63.0966C82.2992 63.0824 82.356 63.071 82.3986 63.0625L82.6032 63.9659C82.535 63.9915 82.4398 64.017 82.3176 64.0426C82.1955 64.071 82.0407 64.0852 81.8532 64.0852C81.5691 64.0852 81.2907 64.0241 81.0179 63.902C80.748 63.7798 80.5236 63.5938 80.3446 63.3438C80.1685 63.0938 80.0804 62.7784 80.0804 62.3977V55.8864Z" fill="white"/>
</svg>
