<svg width="174" height="44" viewBox="0 0 174 44" fill="none" xmlns="http://www.w3.org/2000/svg">
<path d="M60.9 25.72H62.28C63.4133 25.72 64.4267 25.7067 65.32 25.68C66.2133 25.64 67.06 25.58 67.86 25.5C68.6733 25.42 69.4933 25.3 70.32 25.14L70.52 26.5C69.6533 26.6733 68.8067 26.8 67.98 26.88C67.1533 26.96 66.2867 27.02 65.38 27.06C64.4733 27.1 63.44 27.12 62.28 27.12H60.9V25.72ZM60.9 15.18H69.12V16.56H62.56V26.22H60.9V15.18ZM73.24 13.46H74.9V31.58H73.24V13.46ZM68.06 20.02H73.94V21.4H68.06V20.02ZM78.3984 27.88H94.7984V29.26H78.3984V27.88ZM85.7384 23.54H87.3784V28.28H85.7384V23.54ZM80.3184 14.74H81.9784V17.96H91.1784V14.74H92.8184V24H80.3184V14.74ZM81.9784 19.32V22.64H91.1784V19.32H81.9784ZM109.977 13.46H111.637V31.56H109.977V13.46ZM104.677 15.42H106.317C106.317 16.7267 106.157 17.9867 105.837 19.2C105.53 20.4133 105.044 21.5667 104.377 22.66C103.71 23.74 102.844 24.7467 101.777 25.68C100.71 26.6133 99.4169 27.4467 97.8969 28.18L97.0169 26.84C98.7635 26 100.204 25.02 101.337 23.9C102.47 22.78 103.31 21.5333 103.857 20.16C104.404 18.7733 104.677 17.28 104.677 15.68V15.42ZM97.8569 15.42H105.377V16.76H97.8569V15.42Z" fill="#757575"/>
<rect x="1" y="1" width="172" height="42" stroke="#FFD900" stroke-width="2"/>
</svg>
