<svg width="100" height="100" viewBox="0 0 100 100" fill="none" xmlns="http://www.w3.org/2000/svg">
<rect width="100" height="100" fill="#FBE3E3"/>
<path d="M29.7349 61.168V62H22.1829V61.168L23.9429 60.976C24.2842 60.9333 24.4869 60.848 24.5509 60.72C24.6149 60.592 24.6469 60.1547 24.6469 59.408V51.44C24.6469 49.8613 24.4015 48.752 23.9109 48.112C23.4415 47.4507 22.7482 47.12 21.8309 47.12C21.1695 47.12 20.4229 47.3333 19.5909 47.76C18.7802 48.1867 18.0015 49.008 17.2549 50.224V59.408C17.2549 60.1547 17.2869 60.592 17.3509 60.72C17.4149 60.848 17.6175 60.9333 17.9589 60.976L19.7189 61.168V62H12.1669V61.168L13.9269 60.976C14.2682 60.9333 14.4709 60.848 14.5349 60.72C14.5989 60.592 14.6309 60.1547 14.6309 59.408V48.752C14.6309 48.0053 14.5989 47.568 14.5349 47.44C14.4709 47.312 14.2682 47.2267 13.9269 47.184L12.1669 47.024V46.16H17.0949V48.752C17.8415 47.7493 18.6842 47.0133 19.6229 46.544C20.5829 46.0747 21.5322 45.84 22.4709 45.84C24.7749 45.84 26.2575 46.896 26.9189 49.008C27.7082 47.8987 28.5829 47.0987 29.5429 46.608C30.5242 46.096 31.5055 45.84 32.4869 45.84C34.0015 45.84 35.1749 46.3307 36.0069 47.312C36.8602 48.272 37.2869 49.6373 37.2869 51.408V59.408C37.2869 60.1547 37.3189 60.592 37.3829 60.72C37.4469 60.848 37.6495 60.9333 37.9909 60.976L39.7509 61.168V62H32.1989V61.168L33.9589 60.976C34.3002 60.9333 34.5029 60.848 34.5669 60.72C34.6309 60.592 34.6629 60.1547 34.6629 59.408V51.44C34.6629 49.8613 34.4175 48.752 33.9269 48.112C33.4575 47.4507 32.7642 47.12 31.8469 47.12C31.1855 47.12 30.4282 47.344 29.5749 47.792C28.7429 48.2187 27.9535 49.0613 27.2069 50.32C27.2282 50.4907 27.2389 50.672 27.2389 50.864C27.2602 51.0347 27.2709 51.216 27.2709 51.408V59.408C27.2709 60.1547 27.3029 60.592 27.3669 60.72C27.4309 60.848 27.6335 60.9333 27.9749 60.976L29.7349 61.168ZM56.3244 53.744V54.384C56.3244 56.7947 55.7164 58.7253 54.5004 60.176C53.3057 61.6053 51.599 62.32 49.3804 62.32C47.183 62.32 45.4764 61.6053 44.2604 60.176C43.0657 58.7253 42.4684 56.7947 42.4684 54.384V53.744C42.4684 51.3547 43.0657 49.4453 44.2604 48.016C45.455 46.5653 47.1617 45.84 49.3804 45.84C51.599 45.84 53.3057 46.5653 54.5004 48.016C55.7164 49.4453 56.3244 51.3547 56.3244 53.744ZM53.4444 53.104C53.4444 50.8853 53.0924 49.296 52.3884 48.336C51.7057 47.3547 50.703 46.864 49.3804 46.864C48.079 46.864 47.0764 47.3547 46.3724 48.336C45.6897 49.296 45.3484 50.8853 45.3484 53.104V55.024C45.3484 57.264 45.6897 58.8747 46.3724 59.856C47.0764 60.816 48.079 61.296 49.3804 61.296C50.703 61.296 51.7057 60.816 52.3884 59.856C53.0924 58.8747 53.4444 57.264 53.4444 55.024V53.104ZM72.6009 62.224C70.9369 62.224 69.9555 61.456 69.6569 59.92C68.9102 60.7733 68.0889 61.392 67.1929 61.776C66.2969 62.1387 65.4115 62.32 64.5369 62.32C63.0435 62.32 61.9449 61.904 61.2409 61.072C60.5369 60.24 60.1849 59.2373 60.1849 58.064C60.1849 56.8053 60.6115 55.8133 61.4649 55.088C62.3395 54.3413 63.8435 53.968 65.9769 53.968H69.5929V51.376C69.5929 49.6693 69.2942 48.496 68.6969 47.856C68.1209 47.1947 67.3315 46.864 66.3289 46.864C65.6889 46.864 65.1129 46.992 64.6009 47.248C64.0889 47.504 63.7155 47.9733 63.4809 48.656C63.2675 49.3173 63.2462 50.288 63.4169 51.568L60.8889 51.184C60.7822 50.1813 60.9102 49.2853 61.2729 48.496C61.6569 47.6853 62.2755 47.0453 63.1289 46.576C64.0035 46.0853 65.0915 45.84 66.3929 45.84C67.9502 45.84 69.1449 46.1067 69.9769 46.64C70.8089 47.152 71.3849 47.824 71.7049 48.656C72.0462 49.488 72.2169 50.3947 72.2169 51.376V58.576C72.2169 59.664 72.3342 60.3467 72.5689 60.624C72.8249 60.9013 73.1022 61.04 73.4009 61.04C73.5929 61.04 73.7955 60.9973 74.0089 60.912C74.2222 60.8053 74.4569 60.6453 74.7129 60.432L75.2889 61.232C74.9689 61.5093 74.5849 61.744 74.1369 61.936C73.7102 62.128 73.1982 62.224 72.6009 62.224ZM65.4329 60.976C66.0302 60.976 66.6702 60.816 67.3529 60.496C68.0569 60.1547 68.8035 59.4827 69.5929 58.48V54.992H66.3289C65.1342 54.992 64.2595 55.2373 63.7049 55.728C63.1715 56.1973 62.9049 56.9333 62.9049 57.936C62.9049 58.896 63.1075 59.6427 63.5129 60.176C63.9395 60.7093 64.5795 60.976 65.4329 60.976ZM87.2581 58.736C86.9381 59.9733 86.4368 60.88 85.7541 61.456C85.0715 62.032 84.1968 62.32 83.1301 62.32C82.1061 62.32 81.2741 62.096 80.6341 61.648C79.9941 61.1787 79.5248 60.5707 79.2261 59.824C78.9275 59.0773 78.7781 58.2987 78.7781 57.488V48.752C78.7781 48.0053 78.7461 47.568 78.6821 47.44C78.6395 47.312 78.4368 47.2267 78.0741 47.184L76.3141 47.024V46.16H78.7781V41.968L81.4021 41.424V46.16H86.6181V47.184H81.4021V57.744C81.4021 59.088 81.5835 60.016 81.9461 60.528C82.3301 61.04 82.8315 61.296 83.4501 61.296C84.0688 61.296 84.5381 61.0613 84.8581 60.592C85.1995 60.1227 85.4448 59.3547 85.5941 58.288L87.2581 58.736Z" fill="white"/>
</svg>
