<svg width="100" height="100" viewBox="0 0 100 100" fill="none" xmlns="http://www.w3.org/2000/svg">
<rect width="100" height="100" fill="#0032A0"/>
<path d="M32.3952 42.8594V57H30.1295L23.4303 47.332H23.3131V57H20.7741V42.8594H23.0788L29.7389 52.5273H29.8756V42.8594H32.3952ZM37.8714 42.8594V57H35.3323V42.8594H37.8714ZM42.7031 42.8594L46.375 54.0117H46.5312L50.2227 42.8594H53.0156L48.0156 57H44.8906L39.9102 42.8594H42.7031ZM55.0153 57V42.8594H64.2145V44.9883H57.5544V48.8555H63.7262V50.9844H57.5544V54.8516H64.2536V57H55.0153ZM68.7728 57H66.058L71.0384 42.8594H74.1634L79.1634 57H76.4486L75.2767 53.5039H69.9447L68.7728 57ZM70.6283 51.4531H74.5931L72.6595 45.75H72.5423L70.6283 51.4531Z" fill="white"/>
</svg>
