<svg width="48" height="48" viewBox="0 0 48 48" fill="none" xmlns="http://www.w3.org/2000/svg">
<circle cx="23.5" cy="23.5" r="21.0865" stroke="white" stroke-width="0.826923"/>
<circle cx="23.5" cy="23.5" r="19.4327" stroke="white" stroke-width="0.826923"/>
<path d="M20.3575 30.9669V31.6152H16.0509V29.6935C15.6186 30.4035 15.1324 30.9438 14.5922 31.3142C14.0673 31.6693 13.4422 31.8468 12.7167 31.8468C11.4201 31.8468 10.3859 31.3374 9.61408 30.3186C8.85772 29.2844 8.47955 27.8412 8.47955 25.9888V25.5258C8.47955 23.7352 8.91947 22.3074 9.79931 21.2423C10.6946 20.1772 11.914 19.6447 13.4576 19.6447C14.3838 19.6447 15.2019 19.8762 15.9119 20.3393V16.4263C15.9119 15.9015 15.8888 15.5928 15.8425 15.5002C15.7962 15.3921 15.6495 15.3226 15.4025 15.2918L14.1291 15.1297V14.4814H18.5746V29.6703C18.5746 30.1951 18.5978 30.5116 18.6441 30.6196C18.6904 30.7122 18.837 30.774 19.084 30.8048L20.3575 30.9669ZM11.3275 26.6835C11.3275 28.119 11.505 29.1686 11.86 29.8324C12.215 30.4961 12.7013 30.828 13.3187 30.828C13.7046 30.828 14.1059 30.6736 14.5227 30.3649C14.9549 30.0408 15.418 29.3925 15.9119 28.42V21.4275C15.3254 20.841 14.6076 20.5477 13.7586 20.5477C12.9096 20.5477 12.2922 20.9336 11.9063 21.7054C11.5204 22.4617 11.3275 23.5037 11.3275 24.8312V26.6835ZM26.145 14.4814L27.048 14.8287L19.0368 34.9262L18.1338 34.5789L26.145 14.4814ZM25.5673 20.5245V19.8762H29.8739V21.798C30.3215 21.0725 30.8078 20.5323 31.3326 20.1772C31.8574 19.8222 32.4825 19.6447 33.208 19.6447C34.5046 19.6447 35.5311 20.1618 36.2875 21.196C37.0593 22.2148 37.4452 23.6503 37.4452 25.5026V25.9657C37.4452 27.7563 37.0053 29.1841 36.1254 30.2492C35.2456 31.3142 34.0261 31.8468 32.4671 31.8468C31.541 31.8468 30.7229 31.6152 30.0128 31.1522V34.6021C30.0128 35.1269 30.036 35.4356 30.0823 35.5282C30.1286 35.6363 30.2752 35.7057 30.5222 35.7366L32.2587 35.8987V36.547H25.5673V35.8987L26.8407 35.7366C27.0877 35.7057 27.2343 35.6363 27.2806 35.5282C27.327 35.4356 27.3501 35.1269 27.3501 34.6021V21.8212C27.3501 21.2963 27.327 20.9876 27.2806 20.895C27.2343 20.787 27.0877 20.7175 26.8407 20.6866L25.5673 20.5245ZM32.606 20.6635C32.2201 20.6635 31.8111 20.8255 31.3789 21.1497C30.9621 21.4584 30.5068 22.099 30.0128 23.0715V30.0639C30.5994 30.6505 31.3171 30.9438 32.1661 30.9438C33.0305 30.9438 33.648 30.5656 34.0184 29.8092C34.4043 29.0374 34.5973 27.9878 34.5973 26.6603V24.808C34.5973 23.3725 34.4198 22.3228 34.0647 21.6591C33.7097 20.9953 33.2235 20.6635 32.606 20.6635Z" fill="white"/>
</svg>
