<svg width="100" height="100" viewBox="0 0 100 100" fill="none" xmlns="http://www.w3.org/2000/svg">
<rect width="100" height="100" fill="#FCECDC"/>
<path fill-rule="evenodd" clip-rule="evenodd" d="M72.313 42.0011C71.5193 42.0011 70.8019 42.3048 70.3054 42.8394C69.735 43.4203 69.6108 43.8857 69.6108 45.1872V54.7896C69.6108 55.8601 69.7851 56.3937 70.3054 56.9284C70.7769 57.4169 71.5933 57.7426 72.338 57.7426C73.0827 57.7426 73.8514 57.4158 74.3718 56.8822C74.8682 56.3706 75.0675 55.7656 75.0675 54.7896V45.1872C75.0675 43.933 74.8922 43.3972 74.3467 42.8141C73.8514 42.3037 73.1067 42 72.3142 42" fill="#EF6A00"/>
<path fill-rule="evenodd" clip-rule="evenodd" d="M30.7922 42.001C29.9747 42.001 29.2048 42.3684 28.6867 42.9625C28.1892 43.5093 28.0912 43.8526 28.0912 44.9715V51.0489C28.0912 52.1007 27.5458 52.7388 26.6029 52.7388C25.66 52.7388 25.1146 52.0765 25.1146 50.9807V44.9715C25.1146 43.8988 24.9164 43.3289 24.3721 42.8008C23.8756 42.3222 23.1059 42.001 22.3635 42.001C21.5698 42.001 20.7271 42.3915 20.2067 42.9856C19.7353 43.5544 19.6362 43.9208 19.6362 45.3598V50.7288C19.6362 52.7377 19.9596 53.8103 20.9754 55.091C22.2906 56.7358 24.3972 57.7425 26.6029 57.7425C28.5626 57.7425 30.495 56.9184 31.8341 55.5013C33.0252 54.268 33.5707 52.7839 33.5707 50.7288V45.3158C33.5707 43.945 33.4466 43.4873 32.9251 42.9163C32.4286 42.3684 31.5859 42.001 30.7922 42.001Z" fill="#EF6A00"/>
<path fill-rule="evenodd" clip-rule="evenodd" d="M10.2338 47.0651C10.3215 47.0959 10.408 47.13 10.4946 47.1685C11.5616 47.6647 12.255 48.7275 12.255 49.8816C12.255 50.8498 11.7358 51.8191 10.9159 52.3834C10.2725 52.8092 9.82502 52.8807 7.94045 52.9038V46.8385H8.38796C9.23745 46.8385 9.77605 46.9045 10.235 47.064L10.2338 47.0651ZM17.1527 47.0651C16.6937 45.8967 15.9468 44.8417 14.9584 44.0066C13.3448 42.638 11.4363 42.001 8.95617 42.001H5.6095C4.02212 42.001 3.00412 42.5918 2.60898 43.725C2.48486 44.0781 2.48486 44.219 2.48486 45.5414V54.202C2.48486 55.2857 2.48486 55.5464 2.58507 55.9018C2.75815 56.5157 3.1066 56.9393 3.72607 57.3167C4.22141 57.6478 4.74179 57.7413 6.02968 57.7413H8.33786C9.47885 57.7413 10.4707 57.6709 11.1391 57.5521C12.5784 57.2705 13.9666 56.585 15.0335 55.6411C16.7199 54.1547 17.6855 52.0303 17.6855 49.8574C17.6855 48.8958 17.5023 47.9475 17.1538 47.0662L17.1527 47.0651Z" fill="#EF6A00"/>
<path fill-rule="evenodd" clip-rule="evenodd" d="M47.9207 42.001C47.028 42.001 46.1603 42.4455 45.69 43.1188C45.2936 43.6524 45.1946 44.1188 45.1946 45.1409V48.0245L40.855 43.0264C40.2343 42.3046 39.6161 42.001 38.8212 42.001C37.1109 42.001 35.9688 43.0957 35.9688 44.7459V54.5574C35.9688 55.6961 36.0929 56.1615 36.5392 56.7435C37.0607 57.3706 37.8784 57.7435 38.7221 57.7435C39.5659 57.7435 40.3095 57.3948 40.8299 56.8139C41.3013 56.2561 41.4505 55.7896 41.4505 54.7675V51.5121L45.7639 56.6983C46.3344 57.3958 47.053 57.7435 47.9218 57.7435C48.7907 57.7435 49.5582 57.3948 50.0535 56.7907C50.525 56.2088 50.6479 55.6972 50.6479 54.465V44.9781C50.6479 44.0253 50.476 43.4906 50.0034 42.9317C49.483 42.3508 48.7395 42.001 47.9207 42.001Z" fill="#EF6A00"/>
<path fill-rule="evenodd" clip-rule="evenodd" d="M63.5607 49.698L66.3392 45.9068C66.6113 45.5371 66.7593 45.0464 66.7593 44.5601C66.7593 43.1882 65.4954 42.0011 64.0082 42.0011C63.0904 42.0011 62.2978 42.4203 61.7502 43.1882L58.917 47.1082L58.7268 47.3733V44.8847C58.7268 43.955 58.5276 43.3741 58.0072 42.8625C57.5107 42.3268 56.7432 42 55.9495 42C54.3132 42 53.2212 43.1629 53.2212 44.8616V54.8117C53.2212 56.6027 54.287 57.7415 55.9985 57.7415C57.71 57.7415 58.7258 56.5785 58.7258 54.7885V52.114L62.8171 56.9746C63.2134 57.4389 63.957 57.7426 64.7257 57.7426C66.214 57.7426 67.4528 56.5565 67.4528 55.1373C67.4528 54.6026 67.2798 54.1395 66.9324 53.7423L63.5607 49.6969V49.698Z" fill="#EF6A00"/>
<path fill-rule="evenodd" clip-rule="evenodd" d="M89.126 42.001C88.2333 42.001 87.3656 42.4455 86.8953 43.1188C86.498 43.6524 86.4 44.1188 86.4 45.1409V48.0245L82.0603 43.0264C81.4409 42.3046 80.8215 42.001 80.0278 42.001C78.3174 42.001 77.1753 43.0957 77.1753 44.7459V54.5574C77.1753 55.6961 77.2994 56.1615 77.7458 56.7435C78.2661 57.3706 79.0838 57.7435 79.9264 57.7435C80.7691 57.7435 81.5149 57.3948 82.0342 56.8139C82.5067 56.2561 82.6548 55.7896 82.6548 54.7675V51.5121L86.9693 56.6983C87.5398 57.3958 88.2584 57.7435 89.126 57.7435C89.9937 57.7435 90.7624 57.3948 91.2577 56.7907C91.7292 56.2088 91.8533 55.6972 91.8533 54.465V44.9781C91.8533 44.0253 91.6802 43.4906 91.2087 42.9317C90.6895 42.3508 89.9448 42.001 89.126 42.001Z" fill="#EF6A00"/>
<path fill-rule="evenodd" clip-rule="evenodd" d="M95.2468 42.001C93.8952 42.001 92.9797 43.5819 92.9797 44.8923C92.9797 45.4732 92.9682 46.2444 93.1175 46.954C93.3042 47.8419 93.7437 48.6296 94.7698 48.8232C95.8572 49.0268 96.5985 48.0597 97.0346 46.9518C97.3603 46.1245 97.5152 45.2179 97.5152 44.659C97.5152 43.3509 96.5985 42.001 95.2468 42.001Z" fill="#DF1683"/>
<path d="M93.2198 56.9626H93.3053C93.3691 56.9626 93.4157 56.9284 93.4157 56.8657C93.4157 56.803 93.3691 56.7689 93.3053 56.7689H93.2198V56.9626ZM93.6856 57.2695C93.7107 57.3058 93.73 57.3344 93.73 57.3751C93.73 57.4599 93.6685 57.5193 93.5797 57.5193C93.5307 57.5193 93.4852 57.4951 93.4579 57.4565L93.2586 57.1969H93.2188V57.3718C93.2188 57.4565 93.155 57.5181 93.0707 57.5181C92.9807 57.5181 92.9192 57.4555 92.9192 57.3718V56.6809C92.9192 56.5951 92.983 56.5324 93.0719 56.5324H93.3713C93.566 56.5324 93.7153 56.6666 93.7153 56.8646C93.7153 56.9823 93.6629 57.0759 93.582 57.132L93.6845 57.2673L93.6856 57.2695ZM94.0375 57.0275C94.0375 56.6369 93.7107 56.32 93.3064 56.32C92.9022 56.32 92.5754 56.6358 92.5754 57.0275C92.5754 57.4191 92.9022 57.7349 93.3064 57.7349C93.7107 57.7349 94.0375 57.4191 94.0375 57.0275ZM94.3415 57.0275C94.3415 57.5655 93.8792 58.0022 93.3053 58.0022C92.7314 58.0022 92.269 57.5655 92.269 57.0275C92.269 56.4894 92.7325 56.0527 93.3053 56.0527C93.8781 56.0527 94.3415 56.4894 94.3415 57.0275Z" fill="#EF6A00"/>
</svg>
